{"glyphs":{"3":{"ha":856,"x_min":106,"x_max":754,"o":"m 747 250 q 644 59 733 125 q 408 -7 556 -7 q 241 17 322 -7 q 118 94 160 40 q 106 142 106 111 q 117 213 106 174 q 146 283 129 251 q 151 286 149 289 q 257 195 197 229 q 379 161 317 161 q 513 198 460 161 q 565 293 565 235 q 558 335 565 311 q 363 432 525 432 q 321 431 333 432 q 286 467 304 429 q 268 540 268 506 q 294 581 268 581 q 343 579 328 581 q 447 592 407 582 q 510 626 488 603 q 546 707 546 664 q 522 768 546 742 q 461 799 499 794 q 426 801 436 801 q 331 780 367 801 q 253 718 294 758 q 211 681 226 692 q 176 675 196 671 q 135 709 150 676 q 121 782 121 742 q 136 847 121 825 q 253 928 175 903 q 411 954 331 954 q 629 888 544 954 q 714 704 714 821 q 687 597 714 646 q 610 514 660 547 q 725 391 696 464 q 747 250 754 318 z "},"A":{"ha":929,"x_min":-56,"x_max":921,"o":"m 751 0 q 714 8 729 0 q 690 50 699 15 q 651 189 683 79 l 633 251 q 626 275 629 263 q 618 300 622 288 q 567 301 592 301 q 518 300 542 300 q 468 299 504 299 l 399 297 q 317 290 349 296 q 208 76 254 142 q 118 3 161 11 q 88 0 99 0 q 3 27 42 0 q -51 121 -35 54 q -49 142 -56 139 q -19 146 -42 146 q 49 175 24 146 q 169 401 113 263 q 283 715 225 540 q 315 807 300 767 q 336 857 329 847 q 415 901 361 897 q 414 918 414 907 q 454 954 414 954 q 476 951 460 954 q 549 938 514 943 q 592 923 578 932 q 611 899 606 914 q 624 853 617 885 q 650 753 638 790 l 681 656 q 734 498 708 568 q 842 222 760 428 q 881 128 871 150 q 913 68 890 106 q 921 36 921 50 q 903 8 921 14 q 851 0 885 1 l 751 0 m 500 468 l 568 468 q 479 736 506 663 q 386 468 443 624 l 500 468 z "},"D":{"ha":965,"x_min":85,"x_max":906,"o":"m 90 899 q 132 963 85 963 q 154 960 138 963 l 254 936 q 290 907 279 929 q 494 953 368 953 q 679 908 589 953 q 822 781 769 863 q 906 457 906 650 q 851 239 906 347 q 699 62 796 131 q 479 -7 601 -7 q 343 -3 408 -7 q 246 0 271 0 l 151 0 q 108 7 124 0 q 97 42 93 14 q 106 79 97 46 q 114 200 114 113 l 114 208 q 110 685 114 575 q 99 840 107 796 q 90 899 93 867 m 293 182 q 425 165 354 165 q 472 168 444 165 q 606 221 549 179 q 695 323 664 263 q 729 450 726 383 q 720 574 732 522 q 675 683 708 626 q 581 765 643 739 q 451 792 519 792 q 369 781 407 792 q 293 736 318 763 l 293 182 z "},"H":{"ha":931,"x_min":85,"x_max":840,"o":"m 297 39 q 285 11 297 22 q 256 0 272 0 l 151 0 q 122 11 135 0 q 110 39 110 22 q 112 67 110 50 q 114 97 114 83 l 114 186 q 110 677 114 563 q 97 840 106 792 l 90 899 q 132 963 85 963 q 154 960 138 963 l 254 936 q 284 917 272 932 q 296 883 296 901 q 294 821 296 842 l 293 757 l 293 572 l 325 572 q 433 574 349 574 l 503 574 l 615 574 q 656 576 633 574 q 651 753 654 704 q 642 839 647 803 q 633 899 636 869 q 675 963 628 963 q 697 960 681 963 l 796 936 q 826 917 814 932 q 839 883 839 901 q 838 821 839 842 l 836 757 l 836 97 q 838 67 836 83 q 840 39 840 50 q 828 11 840 22 q 799 0 815 0 l 694 0 q 665 11 678 0 q 653 39 653 22 q 655 67 653 50 q 657 97 657 83 l 657 186 l 657 404 l 471 404 l 401 401 l 364 401 q 293 397 322 401 l 293 97 q 295 67 293 83 q 297 39 297 50 z "},"P":{"ha":833,"x_min":85,"x_max":774,"o":"m 297 39 q 285 11 297 22 q 256 0 272 0 l 151 0 q 122 11 135 0 q 110 39 110 22 q 112 67 110 50 q 114 97 114 83 l 114 186 q 110 677 114 563 q 97 840 106 792 l 90 899 q 132 963 85 963 q 154 960 138 963 l 254 936 q 292 903 281 929 q 472 953 361 949 q 628 910 560 953 q 735 799 697 868 q 774 656 774 731 q 742 503 774 575 q 639 387 710 432 q 458 342 568 342 q 369 351 407 342 q 293 378 331 360 l 293 97 q 295 67 293 83 q 297 39 297 50 m 293 535 q 354 502 322 514 q 429 490 386 490 q 551 531 506 490 q 596 644 596 571 q 553 754 596 710 q 433 799 510 799 q 399 796 424 799 q 339 779 364 790 q 293 749 314 768 l 293 535 z "},"T":{"ha":829,"x_min":13,"x_max":814,"o":"m 15 893 q 26 934 13 919 q 63 946 39 949 q 200 942 121 942 l 442 943 l 521 943 l 633 943 q 693 948 665 943 q 728 953 721 953 q 762 947 747 953 q 786 917 776 940 q 803 871 797 893 q 813 826 808 849 q 814 814 814 822 q 799 781 814 793 q 764 771 785 768 q 694 777 728 775 q 610 779 660 779 q 514 778 553 779 l 513 97 q 517 42 513 61 q 506 12 518 24 q 474 0 493 0 l 374 0 q 344 11 357 0 q 332 39 332 22 l 335 97 l 335 186 q 324 774 335 663 l 256 772 l 225 772 q 189 771 219 772 q 106 761 158 769 q 93 760 101 760 q 63 772 74 760 q 43 801 53 783 q 15 893 21 851 z "},"W":{"ha":1315,"x_min":15,"x_max":1301,"o":"m 1154 950 q 1214 947 1181 947 q 1251 946 1238 947 q 1301 914 1301 946 q 1297 894 1301 907 q 1194 576 1233 692 q 1144 428 1156 460 q 1072 201 1113 335 l 1061 167 q 1028 66 1042 99 q 996 14 1015 33 q 943 -6 976 -6 q 888 0 906 -6 l 885 0 q 860 3 863 3 q 838 1 853 3 q 803 0 824 0 q 781 8 786 0 q 772 36 775 15 q 761 79 765 65 q 674 331 724 192 l 632 201 l 615 149 q 585 58 597 88 q 553 12 572 29 q 503 -6 535 -6 q 444 0 463 -6 q 418 3 422 3 q 396 1 411 3 q 363 0 381 0 q 340 8 344 0 q 331 38 335 15 q 319 79 322 71 q 234 327 272 219 q 146 568 196 435 q 88 732 131 615 q 67 779 83 742 l 31 861 q 15 915 15 894 q 57 950 15 951 q 158 944 125 944 q 201 933 186 944 q 224 894 215 922 q 247 817 232 861 q 352 532 307 657 q 461 224 397 407 l 472 250 q 509 347 489 286 q 568 554 529 408 q 574 589 574 579 q 567 628 574 607 q 556 660 557 653 l 551 668 l 549 675 l 526 732 q 471 861 514 763 q 457 914 457 892 q 499 950 457 951 q 600 944 567 944 q 642 933 628 944 q 664 894 656 922 q 681 839 675 854 q 690 817 688 824 q 865 328 776 583 l 901 222 q 918 274 907 242 q 1044 696 981 460 l 1054 736 q 1086 899 1082 846 q 1099 935 1089 924 q 1122 948 1110 946 q 1154 950 1133 950 z "},"Y":{"ha":861,"x_min":15,"x_max":846,"o":"m 749 949 q 814 946 788 946 q 838 937 831 946 q 846 914 846 928 q 839 886 846 900 q 676 636 717 697 l 615 543 l 575 481 q 536 411 543 432 q 528 336 529 390 l 528 93 l 531 35 q 518 7 531 18 q 489 -4 506 -4 l 389 -4 q 358 8 372 -4 q 346 38 344 21 q 350 93 350 57 l 350 182 l 350 365 q 337 408 347 386 q 306 467 326 431 q 223 601 257 547 q 136 733 189 656 q 83 806 118 763 q 74 817 79 811 q 65 829 69 822 q 29 876 40 861 q 15 913 15 894 q 26 942 15 931 q 53 953 38 954 l 110 949 q 168 944 133 944 q 212 939 199 944 q 236 914 225 933 q 265 863 251 883 l 289 826 q 438 603 353 728 q 513 715 447 615 l 579 817 q 599 848 581 819 q 626 924 617 876 q 676 953 633 953 q 699 951 689 953 q 717 950 710 950 l 749 949 z "},"a":{"ha":783,"x_min":44,"x_max":775,"o":"m 676 286 q 688 157 675 196 q 729 118 701 118 q 767 129 744 118 q 772 129 769 131 q 775 125 775 128 q 740 40 772 81 q 663 0 708 0 q 567 28 603 0 q 521 100 531 57 q 443 22 496 50 q 317 -6 390 -6 q 115 76 186 -6 q 44 317 44 157 q 80 502 44 422 q 178 626 115 582 q 321 669 242 669 q 422 651 378 669 q 493 603 465 632 l 490 613 q 489 624 489 617 q 505 661 489 646 q 544 676 521 676 q 560 675 554 676 l 643 653 q 672 633 661 647 q 683 601 683 619 l 676 286 m 210 335 q 251 200 210 250 q 363 150 292 150 q 473 206 429 150 q 517 346 517 263 q 477 471 517 425 q 369 517 438 517 q 253 467 297 517 q 210 335 210 418 z "},"b":{"ha":765,"x_min":57,"x_max":719,"o":"m 394 517 q 288 471 326 517 q 249 346 249 425 q 292 206 249 263 q 403 150 336 150 q 515 200 474 150 q 556 335 556 250 q 512 467 556 418 q 394 517 468 517 m 60 943 q 67 990 57 971 q 103 1008 78 1008 q 125 1006 108 1008 l 208 981 q 239 960 226 975 q 250 929 251 946 q 247 756 247 865 l 247 567 q 319 639 268 608 q 444 669 369 669 q 586 626 524 669 q 684 502 649 582 q 719 317 719 422 q 649 76 719 157 q 449 -6 579 -6 q 325 21 378 -6 q 247 94 272 47 q 249 61 247 78 q 251 36 251 44 q 239 9 251 19 q 210 -1 226 -1 l 121 -1 q 92 10 104 -1 q 79 38 79 21 q 81 65 79 49 q 83 96 83 82 l 83 185 q 79 703 83 579 q 67 889 75 826 q 60 943 67 892 z "},"e":{"ha":683,"x_min":44,"x_max":639,"o":"m 586 258 q 624 210 610 240 q 639 149 639 179 q 622 94 639 115 q 522 16 581 40 q 385 -8 463 -8 q 342 -7 357 -8 q 185 42 253 -3 q 81 163 118 88 q 44 332 44 238 q 90 510 44 435 q 217 626 136 586 q 397 667 297 667 q 594 578 532 667 q 622 482 622 538 q 569 358 622 413 q 426 281 515 303 q 293 265 369 265 q 204 275 235 265 q 263 172 217 207 q 379 136 308 136 q 508 186 454 136 q 547 226 526 203 q 574 263 568 250 q 579 264 576 267 l 586 258 m 213 393 q 303 376 244 376 q 421 397 367 376 q 481 449 475 418 q 476 481 483 464 q 454 508 469 499 q 425 524 438 521 q 386 526 413 526 q 278 492 326 526 q 213 393 231 457 z "},"h":{"ha":713,"x_min":57,"x_max":706,"o":"m 622 269 q 629 155 622 185 q 658 125 636 125 q 697 136 671 125 q 703 136 700 138 q 706 132 706 135 q 667 28 696 57 q 576 0 638 0 q 494 40 526 0 q 463 132 463 79 l 463 294 q 456 419 463 378 q 426 480 449 460 q 354 500 403 500 q 278 459 308 500 q 247 344 249 418 l 247 335 l 247 96 q 249 62 247 79 q 251 36 251 44 q 239 9 251 19 q 210 -1 226 -1 l 121 -1 q 92 10 104 -1 q 79 38 79 21 q 81 65 79 49 q 83 96 83 82 l 83 185 q 79 703 83 579 q 67 889 75 826 q 60 943 67 892 q 67 990 57 971 q 103 1008 78 1008 q 125 1006 108 1008 l 208 981 q 239 960 226 975 q 250 929 251 946 q 247 756 247 865 l 247 604 q 421 667 318 667 q 463 664 435 667 q 547 626 511 658 q 603 549 583 593 q 622 469 622 506 l 622 269 z "},"i":{"ha":368,"x_min":60,"x_max":360,"o":"m 222 776 q 189 765 208 767 q 168 764 182 764 q 99 788 124 764 q 74 860 74 813 l 75 890 q 69 929 75 907 q 60 958 60 954 q 90 975 60 975 q 183 958 149 975 q 238 918 217 944 q 260 858 260 892 q 222 776 260 804 m 63 614 q 69 660 60 642 q 104 679 79 679 q 128 675 114 679 l 211 651 q 243 630 231 644 q 254 599 256 615 q 250 426 250 536 l 250 318 q 311 172 250 172 q 351 185 329 172 q 357 185 354 186 q 360 181 360 183 q 318 44 347 89 q 231 0 289 0 q 119 35 149 0 q 90 132 90 71 l 90 232 q 84 444 89 382 q 71 553 79 506 q 63 614 65 583 z "},"k":{"ha":717,"x_min":57,"x_max":717,"o":"m 251 36 q 239 9 251 19 q 210 -1 226 -1 l 121 -1 q 92 10 104 -1 q 79 38 79 21 q 81 65 79 49 q 83 96 83 82 l 83 185 q 79 703 83 579 q 67 889 75 826 q 60 943 67 892 q 67 990 57 971 q 103 1008 78 1008 q 125 1006 108 1008 l 208 981 q 239 960 226 975 q 250 929 251 946 q 247 756 247 865 l 247 501 l 251 497 q 394 574 332 535 q 452 610 431 593 q 511 669 474 626 q 540 685 524 685 q 557 678 549 685 q 571 660 565 672 l 611 579 q 619 549 619 561 q 578 501 619 517 q 357 389 478 467 l 396 349 q 544 215 482 257 q 642 164 607 172 q 714 156 676 156 q 717 153 717 156 q 693 98 710 126 q 649 32 676 69 q 588 0 622 0 q 553 7 569 0 q 526 22 536 14 l 463 88 q 389 164 451 100 q 247 299 326 228 l 247 96 q 249 62 247 79 q 251 36 251 44 z "},"n":{"ha":713,"x_min":57,"x_max":706,"o":"m 622 269 q 629 155 622 185 q 658 125 636 125 q 697 136 671 125 q 703 136 700 138 q 706 132 706 135 q 667 28 696 57 q 576 0 638 0 q 494 40 526 0 q 463 132 463 79 l 463 294 q 456 419 463 378 q 426 480 449 460 q 354 500 403 500 q 278 459 308 500 q 247 344 249 418 l 247 236 l 247 232 l 247 97 q 249 63 247 81 q 251 38 251 46 q 239 10 251 21 q 210 0 226 0 l 125 0 q 95 11 108 0 q 82 39 82 22 q 85 67 82 50 q 88 97 88 83 l 88 232 q 81 441 85 381 q 68 553 76 501 q 60 614 63 592 q 67 660 57 642 q 101 679 76 679 q 125 675 111 679 l 208 651 q 236 633 224 646 q 250 607 249 621 q 419 667 321 667 q 463 664 432 667 q 547 626 511 658 q 603 549 583 593 q 622 469 622 506 l 622 269 z "},"o":{"ha":731,"x_min":44,"x_max":686,"o":"m 382 531 q 301 508 340 535 q 238 433 263 482 q 213 325 213 383 q 235 223 213 267 q 292 155 257 179 q 365 131 328 131 q 433 157 397 131 q 494 231 469 183 q 518 338 518 279 q 478 469 518 417 q 382 531 439 522 m 44 338 q 86 508 44 433 q 203 626 128 583 q 372 668 278 668 q 536 624 465 668 q 647 501 607 581 q 686 319 686 422 q 644 152 686 226 q 528 35 603 78 q 358 -7 453 -7 q 195 38 267 -7 q 84 160 124 82 q 44 338 44 239 z "},"u":{"ha":728,"x_min":57,"x_max":719,"o":"m 88 232 q 83 440 88 379 q 69 551 78 501 q 60 614 64 578 q 67 660 57 642 q 101 679 76 679 q 125 675 111 679 l 208 651 q 239 630 226 644 q 250 599 251 615 q 247 426 247 536 l 247 340 q 256 238 247 274 q 287 185 264 201 q 356 168 310 168 q 431 209 401 168 q 463 324 461 250 l 463 336 q 458 470 463 428 q 446 550 454 513 q 441 576 444 558 q 436 614 438 594 q 443 660 433 642 q 478 679 453 679 q 501 675 488 679 l 585 651 q 616 630 604 644 q 626 599 628 615 q 622 426 622 506 l 621 286 q 635 156 622 194 q 675 118 647 118 q 711 129 689 118 q 717 129 714 131 q 719 125 719 128 q 685 40 717 81 q 607 0 653 0 q 524 20 557 0 q 475 75 490 40 q 286 0 403 0 q 247 3 272 0 q 163 42 199 8 q 107 119 126 75 q 88 199 88 163 l 88 232 z "},"专":{"ha":1389,"x_min":89,"x_max":1299,"o":"m 817 -192 q 788 -201 801 -201 q 754 -179 769 -201 q 624 -39 707 -118 q 490 69 542 40 q 472 92 472 79 q 500 110 472 107 q 597 105 536 113 q 714 83 658 97 q 770 187 746 138 q 801 256 794 236 l 801 258 q 790 267 801 267 q 669 239 736 258 q 543 193 603 219 q 514 186 528 186 q 488 196 499 186 q 401 274 440 226 q 396 290 396 281 q 414 321 396 307 q 486 432 457 357 l 503 479 q 371 451 440 469 q 251 410 304 435 q 221 401 235 401 q 200 406 211 401 q 156 444 185 414 q 99 510 126 475 q 89 532 89 524 q 118 547 89 543 q 539 607 347 578 l 572 747 l 481 729 q 453 726 464 726 q 399 739 424 726 q 325 817 358 761 q 319 835 319 826 q 340 850 319 849 q 599 883 440 857 q 619 1035 613 963 q 610 1114 624 1079 q 607 1128 607 1125 q 613 1140 607 1136 q 631 1143 619 1144 q 745 1121 688 1138 q 828 1088 803 1104 q 844 1058 844 1075 q 836 1032 844 1047 q 817 986 822 1013 l 799 924 q 908 954 869 940 q 933 958 924 958 q 957 954 943 958 q 1009 910 981 942 q 1044 861 1038 878 q 1053 835 1053 847 q 1045 815 1053 822 q 1026 807 1038 808 q 760 779 921 803 l 722 636 q 1142 721 1028 686 q 1175 728 1165 728 q 1203 718 1190 728 q 1251 669 1225 703 q 1290 606 1276 635 q 1299 575 1299 589 q 1286 549 1299 558 q 1251 542 1274 540 q 1140 547 1197 547 q 1089 546 1106 547 q 690 508 861 531 l 661 390 l 661 386 q 671 379 661 378 q 782 408 711 383 q 888 451 853 433 q 921 463 910 463 q 997 419 942 463 q 1081 342 1051 376 q 1092 314 1092 328 q 1072 282 1092 296 q 965 185 1038 256 q 822 42 892 115 q 876 -11 858 18 q 894 -72 894 -40 q 874 -138 894 -107 q 817 -192 854 -169 z "},"事":{"ha":1389,"x_min":107,"x_max":1318,"o":"m 713 -240 q 678 -251 694 -251 q 638 -240 657 -251 q 607 -210 618 -228 q 540 -137 583 -174 q 454 -78 497 -101 q 443 -62 443 -71 q 447 -56 443 -58 q 456 -53 450 -53 q 496 -54 481 -53 l 544 -56 q 573 -54 561 -56 q 592 -53 585 -53 q 612 -46 604 -53 q 619 -14 619 -39 l 621 126 q 450 104 497 113 q 429 101 436 101 q 374 125 396 101 q 344 182 353 149 q 343 193 343 186 q 350 210 343 204 q 365 215 357 217 q 622 232 418 211 q 624 285 624 250 q 242 225 447 265 q 176 243 214 219 q 121 290 138 267 q 107 328 107 315 q 143 350 107 347 q 625 396 289 354 l 625 439 q 442 414 486 425 q 429 413 438 413 q 346 494 383 413 l 343 506 q 361 524 343 521 q 626 542 511 533 l 626 601 l 529 581 q 521 553 526 564 q 507 542 515 543 q 464 546 493 539 q 418 560 435 553 q 400 576 404 567 q 394 599 396 586 q 393 615 393 611 q 385 674 393 636 q 365 743 376 713 q 349 778 360 765 q 342 793 342 788 q 360 808 342 804 q 439 815 394 815 q 479 811 467 815 q 493 799 489 807 q 626 817 589 811 q 625 863 626 847 q 351 808 507 843 q 335 807 346 807 q 269 832 301 807 q 214 896 236 857 q 208 915 208 906 q 253 939 208 939 q 615 983 325 940 q 590 1121 603 1086 q 582 1153 582 1142 q 592 1172 582 1167 q 625 1176 603 1176 q 713 1159 668 1176 q 776 1122 757 1142 q 792 1084 789 1110 q 793 1013 794 1058 q 1053 1060 926 1035 q 1097 1064 1081 1064 q 1128 1059 1118 1064 q 1150 1043 1138 1054 q 1203 967 1181 1014 q 1207 951 1207 958 q 1186 922 1207 933 q 1122 910 1165 910 q 788 886 972 910 l 788 844 q 940 882 899 865 q 949 886 943 883 q 964 889 956 889 q 979 885 971 889 q 1008 868 1003 871 q 1074 824 1065 833 q 1081 815 1078 819 q 1083 803 1083 810 q 1081 789 1083 796 q 1078 776 1079 782 q 1031 649 1047 700 q 1010 625 1026 633 q 976 612 994 617 q 947 604 957 607 q 926 601 940 601 q 896 614 904 601 l 882 631 q 788 624 850 631 q 789 558 789 603 q 875 572 849 567 q 924 588 901 578 q 948 599 940 596 q 965 599 956 601 q 1101 533 1072 564 q 1114 506 1114 521 q 1110 488 1114 499 q 1106 468 1107 478 l 1104 460 l 1196 474 q 1210 475 1200 475 q 1263 453 1239 475 q 1315 374 1304 422 q 1318 357 1318 363 q 1304 326 1318 338 q 1261 317 1290 315 q 1147 319 1186 319 l 1064 318 q 1050 257 1051 279 q 1045 212 1049 244 q 1034 160 1042 179 q 1010 129 1026 142 q 932 100 969 100 q 901 107 914 100 q 885 125 888 114 q 879 143 882 132 q 794 140 856 143 l 797 -22 q 777 -169 797 -114 q 713 -240 757 -224 m 507 711 q 517 658 511 679 q 628 678 575 671 l 628 733 l 586 726 l 507 711 m 788 703 q 844 710 822 708 q 878 714 867 713 q 883 757 883 742 q 869 768 883 768 q 788 758 858 768 l 788 703 m 790 417 l 885 429 l 885 447 q 880 459 885 457 q 867 460 875 461 l 790 451 l 790 417 m 793 253 q 878 265 854 260 l 878 274 l 881 310 q 792 303 849 308 l 793 253 z "},"从":{"ha":1389,"x_min":50,"x_max":1386,"o":"m 397 -133 q 376 -125 376 -133 q 397 -106 376 -118 q 671 226 583 4 q 670 226 671 226 q 669 225 669 225 q 656 222 661 222 q 627 233 642 222 q 606 264 613 244 q 547 368 592 306 q 430 148 503 247 q 267 -15 357 49 q 83 -96 178 -78 l 67 -99 q 50 -90 50 -99 q 68 -69 50 -82 q 265 155 186 17 q 379 452 343 293 q 415 768 415 611 q 410 881 415 840 q 386 953 406 922 q 382 964 382 960 q 389 977 382 972 q 408 982 396 982 q 534 969 483 982 q 625 928 585 956 q 638 904 638 919 q 629 865 638 893 l 622 836 q 600 638 614 801 l 596 585 q 578 472 589 521 q 672 433 624 464 q 721 390 704 413 q 754 783 754 549 q 749 905 754 861 q 728 979 744 949 q 718 1006 718 996 q 753 1028 718 1028 q 879 1006 818 1028 q 976 956 940 985 q 986 932 986 947 q 978 890 986 921 q 971 858 976 881 q 956 743 967 840 q 936 585 947 642 l 936 583 l 936 582 q 1044 313 993 411 q 1161 135 1096 214 q 1240 56 1197 92 q 1338 -18 1282 21 q 1363 -35 1353 -26 q 1386 -67 1386 -51 q 1369 -82 1386 -78 q 1194 -97 1272 -97 q 1138 -94 1174 -97 q 1078 -87 1097 -92 q 1038 -64 1060 -83 q 992 -1 1017 -44 q 872 317 915 131 q 702 3 808 108 q 411 -132 596 -101 l 397 -133 z "},"先":{"ha":1389,"x_min":92,"x_max":1331,"o":"m 260 511 q 246 504 250 504 q 242 511 242 504 q 246 528 242 518 q 333 747 293 618 q 368 949 374 875 l 368 950 q 386 960 368 963 q 458 931 417 953 q 524 890 500 910 q 543 847 543 872 q 535 813 543 829 q 614 822 590 818 q 617 953 617 914 q 607 1099 617 1079 q 597 1128 597 1117 q 631 1143 597 1143 q 714 1125 667 1143 q 794 1082 761 1107 q 817 1047 817 1067 q 814 1032 817 1043 q 807 1010 810 1024 q 801 985 804 996 q 785 849 794 938 q 879 871 836 858 q 933 882 911 882 q 971 871 957 882 q 1013 829 997 846 q 1038 792 1028 813 q 1046 768 1046 782 q 1037 747 1046 756 q 1010 735 1028 738 l 771 710 q 758 547 763 632 q 997 588 933 572 q 1063 601 1038 601 q 1089 597 1076 601 q 1149 540 1119 578 q 1188 471 1179 501 q 1178 436 1192 451 q 1133 421 1165 421 l 871 418 q 875 396 875 408 q 865 346 875 382 q 842 169 842 236 q 849 90 842 135 q 877 44 854 65 q 924 19 900 24 q 990 11 950 11 q 1063 18 1028 11 q 1107 26 1099 25 q 1159 72 1143 36 q 1196 200 1175 108 q 1210 217 1200 217 q 1222 204 1218 217 q 1272 86 1240 154 q 1324 -12 1304 18 q 1331 -40 1331 -24 q 1314 -92 1331 -67 q 1264 -129 1297 -117 q 1039 -160 1181 -160 q 863 -144 931 -160 q 737 -83 782 -124 q 682 1 692 -43 q 668 117 668 58 q 682 263 668 165 l 690 333 q 699 410 696 374 l 643 403 l 638 372 q 631 333 636 368 q 622 292 628 322 q 610 235 617 261 q 536 48 582 126 q 392 -92 490 -31 q 124 -182 293 -153 l 118 -182 q 100 -178 108 -182 q 92 -168 92 -174 q 101 -156 92 -161 q 310 3 239 -71 q 412 151 382 78 q 463 340 442 225 l 468 376 q 306 338 365 357 q 279 333 293 333 q 232 347 251 333 q 194 378 210 361 q 149 433 179 394 q 143 457 143 444 q 168 485 143 483 q 601 528 306 492 l 610 693 q 533 683 588 692 q 500 681 521 681 q 453 694 468 681 q 260 511 356 571 z "},"全":{"ha":1389,"x_min":18,"x_max":1401,"o":"m 39 288 q 28 286 35 286 q 18 292 18 286 q 28 306 18 296 q 297 598 179 428 q 492 947 414 768 q 521 1063 521 1011 q 518 1086 521 1072 q 517 1097 517 1090 q 526 1110 517 1110 q 540 1106 532 1110 q 625 1072 576 1097 q 699 1025 674 1046 q 721 990 721 1007 q 706 961 721 979 q 692 947 706 961 q 1046 615 854 742 q 1385 442 1257 485 q 1401 428 1401 436 q 1386 411 1401 419 q 1285 378 1351 393 q 1155 354 1218 364 q 1079 344 1092 344 q 954 393 999 344 q 626 826 778 629 q 447 533 538 643 q 606 558 521 543 q 733 585 690 574 q 756 588 742 588 q 803 564 782 588 q 857 483 849 510 q 861 464 861 474 q 854 445 861 453 q 832 438 847 438 q 660 426 763 438 q 711 383 689 410 q 717 365 717 378 q 711 328 717 356 l 743 333 q 765 335 751 335 q 838 313 811 335 q 882 235 861 290 q 885 217 885 224 q 877 193 885 203 q 854 183 869 183 q 706 176 799 183 l 706 85 q 707 29 706 39 l 708 21 q 922 43 857 32 q 964 47 946 47 q 1029 26 1004 47 q 1064 -16 1044 14 q 1090 -68 1083 -46 q 1094 -89 1094 -81 q 1081 -113 1094 -106 q 1047 -119 1068 -121 q 861 -115 979 -115 q 553 -124 704 -115 q 315 -153 403 -133 q 286 -157 301 -157 q 213 -129 247 -157 q 181 -90 196 -112 q 158 -50 167 -67 q 151 -25 151 -37 q 193 -3 151 0 q 254 -4 211 -4 q 531 7 368 -4 l 535 39 q 539 158 539 76 l 435 143 q 369 166 403 138 q 319 231 336 194 q 317 244 317 242 q 356 276 317 276 q 538 296 400 275 q 528 410 536 349 q 447 397 476 403 q 399 404 425 394 q 351 433 372 414 q 209 343 285 378 q 39 288 133 308 z "},"前":{"ha":1389,"x_min":79,"x_max":1336,"o":"m 249 631 q 224 626 239 626 q 153 651 188 626 q 115 688 133 664 q 88 731 96 711 q 79 757 79 747 q 90 774 79 769 q 124 779 100 778 q 351 797 190 781 q 693 835 513 813 q 776 969 743 890 q 811 1097 810 1049 q 820 1135 815 1126 q 846 1144 825 1144 q 999 1076 931 1144 q 1010 1047 1010 1063 q 989 1010 1010 1026 l 958 976 q 893 910 924 939 q 815 850 863 881 q 1143 903 1053 882 q 1176 906 1156 906 q 1228 894 1200 906 q 1321 800 1283 867 q 1336 757 1336 776 q 1326 731 1336 740 q 1296 724 1315 722 q 1078 732 1194 732 q 601 701 842 732 q 249 631 360 671 m 268 26 q 278 182 272 51 q 285 442 285 313 l 285 513 q 279 561 285 543 q 272 582 274 579 q 268 604 268 594 q 278 626 268 619 q 307 632 288 632 q 386 614 347 632 q 476 629 444 618 q 519 643 508 640 q 560 660 532 646 q 593 674 582 669 q 614 674 604 678 q 664 642 638 665 q 700 594 690 618 q 704 571 704 585 q 701 534 704 554 q 696 508 697 514 q 690 333 690 471 q 694 51 690 218 l 696 -4 q 688 -68 696 -44 q 658 -115 681 -92 q 585 -160 629 -150 q 548 -149 560 -164 q 533 -110 536 -135 q 506 -52 531 -83 q 458 -3 481 -21 q 442 17 442 10 q 447 20 442 19 q 460 19 451 21 q 481 14 463 18 q 532 10 500 10 l 533 10 q 545 15 542 10 q 551 32 549 21 q 557 169 554 74 q 538 168 550 168 q 460 158 521 168 l 415 151 l 411 151 l 411 -36 q 400 -97 411 -72 q 374 -135 389 -122 q 350 -147 360 -147 q 275 -65 317 -147 q 267 -7 267 -43 q 268 26 267 17 m 364 1065 q 446 1076 400 1076 q 525 1063 493 1076 q 588 1021 567 1049 q 608 958 608 993 q 595 904 608 931 q 560 858 582 878 q 543 853 554 853 q 526 856 535 853 q 513 864 517 860 q 465 914 489 885 q 433 953 442 943 q 385 1010 401 994 q 365 1028 381 1014 q 350 1053 350 1043 q 364 1065 350 1061 m 475 257 q 519 263 508 263 q 540 257 533 263 q 557 242 550 251 q 556 325 557 297 l 532 324 q 415 308 507 324 l 413 246 l 475 257 m 469 417 q 494 420 481 418 q 517 422 508 422 q 536 417 529 422 q 554 401 543 413 q 549 507 551 474 q 536 524 549 524 q 425 507 486 525 q 424 497 424 503 l 419 408 l 469 417 m 751 538 q 749 554 749 549 q 763 572 749 572 q 818 567 796 572 q 874 550 840 561 q 891 535 885 547 q 897 508 897 524 q 894 490 897 501 q 889 429 890 463 l 888 369 l 889 269 q 886 193 889 249 q 870 133 885 158 q 836 108 856 108 q 815 118 825 108 q 769 168 788 140 q 756 222 751 196 q 760 278 756 229 q 765 390 765 326 q 763 469 765 414 q 751 538 763 511 m 835 -21 q 825 -7 825 -15 q 830 1 825 -1 q 843 3 835 4 q 890 -6 867 -3 q 926 -6 914 -8 q 953 11 943 0 q 965 49 964 22 q 967 121 967 64 q 963 378 967 240 q 960 551 960 506 q 954 606 958 582 q 943 653 950 631 q 939 671 939 664 q 950 688 939 683 q 983 693 961 693 q 1032 684 997 693 q 1099 660 1067 675 q 1142 629 1131 646 q 1150 606 1150 621 q 1144 581 1150 593 q 1136 513 1136 557 l 1136 464 q 1133 278 1133 358 q 1138 15 1133 124 q 1117 -114 1142 -68 q 1028 -199 1093 -160 q 1000 -208 1014 -208 q 953 -150 974 -208 q 906 -78 940 -114 q 835 -21 872 -42 z "},"发":{"ha":1389,"x_min":65,"x_max":1364,"o":"m 93 -103 q 74 -98 83 -103 q 65 -86 65 -93 q 76 -72 65 -79 q 365 233 251 49 q 542 618 478 417 q 376 578 408 589 q 364 575 368 575 q 331 584 349 575 q 304 606 314 593 q 269 678 275 635 q 278 707 268 693 q 307 740 288 721 q 344 826 328 760 q 360 942 360 893 q 367 975 361 965 q 393 985 374 985 q 468 963 428 985 q 529 897 508 940 q 533 878 533 888 q 524 849 533 865 q 514 829 515 832 l 499 801 q 461 736 485 774 l 578 749 q 611 946 606 869 l 613 1029 q 603 1126 613 1089 q 601 1140 601 1131 q 633 1164 601 1168 q 730 1135 685 1160 q 801 1076 775 1110 q 817 1040 817 1057 q 808 1007 817 1028 q 768 831 794 969 q 763 806 765 819 q 756 774 760 792 q 997 828 883 794 q 1056 839 1031 839 q 1074 835 1068 839 q 1153 735 1132 794 q 1157 714 1157 725 q 1144 683 1157 694 q 1108 674 1132 672 q 1033 676 1085 676 q 725 650 906 676 q 690 539 715 614 q 801 557 778 546 q 825 569 817 564 q 838 576 833 574 q 851 585 844 582 q 867 588 858 588 q 928 557 892 588 q 1028 440 1028 471 q 1020 412 1026 425 q 1000 378 1014 399 l 979 347 q 881 178 919 238 q 1331 -67 1157 -19 q 1355 -77 1346 -71 q 1364 -90 1364 -83 q 1351 -103 1364 -99 q 1224 -137 1322 -117 q 1075 -162 1126 -158 q 1049 -164 1067 -164 q 914 -112 961 -164 q 781 40 854 -51 q 599 -108 700 -53 q 354 -186 497 -164 q 331 -187 347 -187 q 281 -183 304 -187 q 258 -169 258 -178 q 278 -154 258 -162 q 490 -25 388 -107 q 672 172 592 57 q 572 289 622 233 q 99 -103 396 -1 l 93 -103 m 618 368 q 656 349 640 361 l 739 283 q 790 397 767 335 q 794 417 794 406 q 791 427 794 424 q 781 429 788 431 l 742 422 q 635 404 653 406 l 618 368 m 838 1064 q 831 1076 831 1069 q 871 1093 831 1090 q 982 1075 938 1093 q 1058 1021 1026 1057 q 1079 968 1079 996 q 1063 915 1079 942 q 1021 867 1047 888 q 994 856 1007 856 q 951 896 972 856 q 838 1064 894 1007 z "},"台":{"ha":1389,"x_min":197,"x_max":1178,"o":"m 308 418 q 304 415 306 415 l 313 415 q 391 402 343 414 q 476 375 439 390 q 724 424 594 383 q 836 469 801 446 q 863 478 851 478 q 876 475 868 478 q 1067 364 1011 411 q 1088 325 1088 344 q 1078 294 1088 311 q 1068 275 1069 278 q 1022 147 1042 231 q 994 -12 1001 63 q 951 -101 990 -58 q 871 -162 911 -143 q 836 -171 854 -171 q 775 -131 799 -171 l 733 -65 q 544 -78 604 -71 q 531 -146 549 -115 q 486 -176 513 -176 q 464 -171 474 -176 q 371 -98 407 -133 q 335 -21 335 -62 q 325 203 335 93 q 290 382 315 313 q 288 399 288 389 q 294 413 288 410 q 251 435 272 411 q 215 489 233 454 q 197 561 197 524 q 199 583 197 576 q 211 603 201 596 q 240 619 221 611 q 272 639 265 632 q 392 763 347 704 q 465 899 438 821 q 492 990 485 953 q 500 1064 499 1028 q 503 1096 500 1079 q 517 1122 506 1110 q 543 1133 528 1133 q 558 1129 550 1133 q 678 1048 625 1103 q 747 950 732 993 q 753 921 753 938 q 726 844 753 885 q 628 740 701 807 q 483 619 554 674 q 893 685 485 622 l 839 751 q 826 768 832 757 q 819 788 819 779 q 839 806 819 801 q 1015 776 932 810 q 1146 689 1099 742 q 1178 614 1178 657 q 1158 544 1178 579 q 1108 481 1139 508 q 1065 457 1085 457 q 1029 481 1046 457 l 982 556 q 565 489 774 526 q 308 418 357 451 m 514 211 q 526 63 517 157 q 751 96 665 78 q 797 99 775 101 q 811 242 808 175 l 811 244 q 802 263 811 257 q 783 267 793 269 q 637 244 689 254 q 529 217 585 233 q 514 211 526 215 z "},"后":{"ha":1389,"x_min":-8,"x_max":1328,"o":"m 19 -204 q -2 -199 4 -204 q 3 -186 -8 -193 q 207 49 119 -114 q 341 405 294 213 q 388 754 388 597 q 382 853 388 814 q 351 963 375 922 q 344 989 344 979 q 381 1008 344 1013 q 482 988 415 1007 q 572 953 549 968 q 601 927 589 943 q 619 893 614 911 q 776 969 721 936 q 888 1050 832 1001 q 944 1118 929 1083 q 975 1139 956 1139 q 1015 1124 994 1139 q 1067 1085 1028 1113 q 1128 1037 1108 1054 q 1153 1003 1149 1019 q 1156 986 1156 992 q 1117 931 1156 954 q 884 849 1025 883 q 601 810 743 815 q 571 664 585 757 q 668 674 668 674 q 974 710 846 692 q 1176 758 1101 729 q 1219 768 1206 768 q 1235 764 1229 768 q 1290 713 1265 744 q 1325 651 1315 682 q 1328 640 1328 646 q 1312 605 1328 622 q 1271 586 1296 588 q 940 563 1128 581 q 647 524 751 546 q 628 521 636 521 q 592 533 608 521 q 558 574 574 551 l 546 496 q 526 397 533 429 q 621 389 578 399 q 688 363 664 379 q 838 380 757 367 q 968 404 919 393 q 1043 443 1003 415 q 1072 449 1060 449 q 1088 446 1079 449 q 1160 406 1117 436 q 1231 350 1204 376 q 1250 306 1250 331 q 1239 265 1250 290 q 1201 103 1208 150 q 1183 -36 1193 57 q 1164 -99 1181 -75 q 1118 -146 1147 -122 q 1071 -165 1090 -165 q 1038 -147 1053 -165 q 960 -42 1011 -121 q 739 -62 844 -44 q 707 -128 731 -101 q 657 -156 683 -156 q 601 -126 626 -156 q 576 -53 575 -96 q 558 129 581 6 q 510 329 536 253 q 342 -15 457 139 q 26 -204 228 -169 l 19 -204 m 715 238 q 733 75 724 157 q 853 92 779 85 q 985 99 928 99 l 993 99 q 1001 254 1001 151 q 997 267 1001 264 q 981 269 993 271 l 914 261 q 743 238 813 251 q 729 236 739 236 q 715 238 719 236 z "},"多":{"ha":1389,"x_min":131,"x_max":1258,"o":"m 169 -214 q 131 -204 131 -214 q 167 -181 131 -193 l 242 -153 q 525 -41 431 -82 q 699 54 619 0 q 681 72 686 63 q 586 193 617 157 q 279 49 435 72 q 229 44 244 44 q 213 49 213 44 q 221 58 213 53 q 461 244 333 122 q 644 469 589 365 q 474 403 556 425 q 339 381 393 381 q 311 382 319 381 q 303 388 306 383 q 308 397 301 393 q 404 449 336 417 q 533 515 479 485 q 643 593 588 546 q 632 592 639 592 q 601 610 613 592 q 538 693 579 640 q 322 575 438 599 q 275 571 293 571 q 247 574 257 571 q 238 583 238 578 q 243 593 238 589 q 415 762 325 654 q 565 974 506 869 q 622 1136 624 1079 l 621 1143 q 632 1154 621 1154 q 649 1150 639 1154 q 669 1142 658 1146 q 692 1133 681 1138 q 766 1105 738 1117 q 810 1078 794 1093 q 824 1051 824 1065 q 807 1014 824 1035 q 761 958 796 999 q 890 997 856 978 q 918 1006 903 1006 q 944 999 928 1006 q 1035 952 985 981 q 1100 906 1086 924 q 1103 890 1103 901 q 1092 858 1103 874 l 1046 810 q 990 750 1004 768 q 818 579 921 660 q 883 539 860 563 q 894 515 894 529 q 875 478 894 497 q 864 467 875 478 q 945 488 907 474 q 1031 529 983 501 q 1056 536 1039 536 q 1082 531 1071 536 q 1180 478 1118 514 q 1254 424 1242 442 q 1258 408 1258 418 q 1249 381 1258 394 q 1215 340 1233 364 q 1190 306 1197 315 q 1163 267 1182 293 q 182 -214 796 -196 l 169 -214 m 603 765 q 646 750 628 760 q 699 710 681 735 q 713 660 718 685 q 843 842 786 738 q 847 851 847 849 q 843 858 847 857 q 833 857 839 860 q 681 819 715 835 q 660 817 672 817 q 644 818 649 817 l 603 765 m 657 256 q 731 231 690 250 q 786 191 767 214 q 806 142 806 168 q 967 360 892 224 q 969 371 969 364 q 957 376 969 379 l 919 368 q 800 336 825 346 q 776 331 789 331 q 744 342 763 331 l 742 343 l 722 324 q 657 256 703 301 z "},"宏":{"ha":1389,"x_min":99,"x_max":1258,"o":"m 1107 -149 q 1082 -156 1093 -156 q 1053 -146 1067 -156 q 1032 -118 1040 -136 q 1006 -60 1010 -68 l 989 -24 q 760 -81 876 -44 q 599 -160 643 -118 q 561 -175 582 -175 q 507 -153 536 -175 q 451 -33 482 -125 q 449 -21 449 -25 q 461 4 449 -7 q 499 29 474 15 q 610 135 561 57 q 679 283 660 213 q 701 417 699 360 q 728 443 704 443 q 747 440 740 443 q 828 400 793 426 q 878 349 864 374 q 883 318 883 333 q 858 243 883 293 q 799 151 842 210 q 713 44 757 92 l 940 79 q 869 174 901 147 q 872 193 858 183 q 913 203 886 203 q 1036 165 967 203 q 1150 63 1106 126 q 1185 -33 1185 11 q 1107 -149 1185 -97 m 104 -124 q 353 128 257 -4 q 508 433 449 261 q 463 418 488 428 q 414 411 442 411 q 356 425 382 411 q 309 460 335 436 q 267 514 283 483 q 256 544 256 533 q 288 564 256 564 q 551 582 401 564 l 553 589 q 557 642 557 610 q 540 739 557 700 q 535 761 535 750 q 553 782 535 778 q 413 761 465 772 q 378 757 396 757 q 346 678 360 708 q 317 625 332 647 q 251 582 285 582 q 235 585 246 582 q 201 612 219 590 q 168 657 182 633 q 157 683 157 672 q 185 726 157 704 q 242 822 214 751 q 269 957 269 893 q 282 971 269 971 q 313 961 293 971 q 392 904 356 940 l 397 899 q 626 921 463 904 q 583 1004 608 961 q 535 1085 558 1047 q 533 1091 535 1086 q 531 1101 531 1096 q 560 1117 531 1117 q 649 1103 603 1117 q 732 1067 696 1089 q 803 960 803 1019 q 801 942 803 947 q 976 967 953 960 q 1022 990 1001 976 q 1050 1006 1040 1001 q 1072 1007 1060 1010 q 1140 967 1107 997 q 1213 893 1174 936 q 1247 850 1235 868 q 1258 815 1258 832 q 1218 781 1258 790 q 1143 759 1176 772 q 1053 721 1110 746 q 986 690 1028 707 q 982 689 985 689 q 973 695 976 689 q 975 707 969 701 q 1003 767 994 740 l 1018 801 q 1021 814 1021 810 q 996 831 1021 832 l 885 819 q 750 806 847 815 q 582 786 653 796 q 662 775 622 789 q 747 736 701 761 q 774 686 774 714 q 769 665 774 676 l 754 610 q 957 647 858 626 q 990 658 967 650 q 1026 665 1013 665 q 1098 638 1060 669 q 1157 560 1136 606 q 1165 533 1165 547 q 1136 503 1165 508 q 1076 500 1121 500 q 960 497 999 500 l 926 496 q 714 481 775 489 q 485 78 633 256 q 125 -143 338 -99 l 117 -143 q 99 -133 99 -143 q 104 -124 99 -129 z "},"平":{"ha":1389,"x_min":117,"x_max":1303,"o":"m 653 -203 q 606 -172 632 -196 q 562 -112 581 -147 q 543 -42 543 -78 q 544 -21 543 -28 q 569 350 564 96 q 297 303 454 333 q 274 301 289 301 q 189 324 231 301 q 125 385 147 347 q 117 413 117 401 q 130 437 117 429 q 164 444 143 444 q 569 486 251 444 l 569 588 l 569 790 q 558 864 569 840 q 476 847 510 856 q 408 835 417 835 q 339 861 374 835 q 288 918 304 888 q 282 939 282 929 q 297 963 282 954 q 333 972 313 972 q 551 1006 403 978 q 851 1085 700 1035 q 897 1093 871 1093 q 938 1085 921 1093 q 963 1071 956 1078 q 1017 999 996 1044 q 1019 979 1019 993 q 1010 949 1019 961 q 978 935 1000 936 q 738 899 914 931 l 749 892 q 781 836 781 871 q 776 804 781 824 q 763 635 767 772 q 827 737 801 688 q 853 821 853 786 q 851 838 853 832 q 850 853 850 843 q 857 873 850 868 q 876 878 864 878 q 958 851 900 878 q 1029 807 1015 825 q 1056 771 1056 786 q 1050 756 1056 763 q 936 647 1021 706 q 760 546 851 589 l 760 510 q 1139 565 1076 553 q 1174 568 1153 568 q 1213 562 1200 568 q 1236 544 1225 556 q 1281 488 1260 522 q 1303 428 1303 454 q 1292 399 1303 410 q 1267 389 1281 389 q 758 372 965 389 l 758 244 l 760 58 q 761 -25 761 25 q 733 -153 761 -101 q 669 -206 706 -206 q 653 -203 664 -206 m 346 722 q 338 746 338 733 q 374 771 338 771 q 440 757 403 771 q 506 724 478 743 q 560 636 560 682 q 536 582 560 607 q 475 546 513 557 q 442 552 460 542 q 421 572 425 563 q 346 722 381 667 z "},"年":{"ha":1389,"x_min":86,"x_max":1324,"o":"m 181 500 q 146 492 158 492 q 135 499 135 492 q 153 525 135 511 q 288 712 225 593 q 392 952 351 831 q 438 1147 432 1074 q 454 1161 440 1161 q 479 1157 463 1161 q 642 1076 604 1125 q 651 1050 651 1067 q 642 1011 651 1032 q 568 878 621 961 q 772 919 689 904 q 860 938 819 929 q 929 953 901 946 q 960 957 949 957 q 1006 946 983 957 q 1096 871 1069 908 q 1101 853 1101 860 q 1071 818 1101 828 q 903 792 1029 810 l 847 783 q 867 743 868 760 l 861 668 q 885 675 867 669 q 919 679 901 679 q 968 668 950 679 q 1031 589 1008 643 q 1035 572 1035 581 q 1004 547 1035 557 l 857 522 l 851 376 q 1151 418 1065 400 q 1182 422 1168 422 q 1219 413 1201 422 q 1278 371 1247 401 q 1321 314 1308 340 q 1324 301 1324 306 q 1314 274 1324 286 q 1285 263 1304 263 q 849 243 1151 263 q 858 0 846 125 q 860 -42 860 -14 q 833 -172 860 -122 q 763 -236 807 -221 q 704 -207 736 -246 q 654 -112 672 -168 q 647 -81 647 -94 q 653 -40 647 -71 q 663 231 657 6 q 219 183 376 210 q 185 188 203 182 q 151 204 167 193 q 119 243 138 215 q 89 293 100 271 l 86 304 q 114 317 86 317 q 415 336 224 322 q 417 382 417 351 q 408 501 417 443 q 386 590 399 558 q 382 613 382 603 q 418 640 382 640 q 497 627 449 640 q 569 597 544 614 l 665 618 q 657 756 665 688 l 558 740 q 523 742 540 738 q 481 757 506 747 q 332 599 410 668 q 181 500 254 531 m 664 358 q 665 494 665 407 l 642 492 q 621 490 635 490 q 581 496 597 490 q 575 350 575 388 l 664 358 z "},"开":{"ha":1389,"x_min":121,"x_max":1324,"o":"m 229 -110 q 199 -100 199 -110 q 226 -68 199 -89 q 431 190 375 42 q 496 456 488 338 q 318 428 374 442 q 267 419 288 419 q 207 439 238 419 q 164 477 182 458 q 126 533 146 496 q 121 551 121 544 q 128 573 121 564 q 147 583 136 582 q 506 604 283 586 q 507 672 507 626 q 496 822 507 757 l 471 818 q 454 817 465 817 q 369 849 413 817 q 315 928 326 882 q 314 939 314 932 q 325 960 314 953 q 360 963 336 967 q 526 978 410 960 q 832 1029 642 996 l 925 1046 q 979 1051 954 1051 q 1009 1048 997 1051 q 1033 1035 1021 1044 q 1069 999 1053 1021 q 1096 958 1085 976 q 1110 935 1107 940 q 1115 913 1115 921 q 1106 891 1115 900 q 1079 882 1097 882 q 913 874 1015 882 q 953 858 928 869 q 970 842 965 851 q 975 818 975 833 q 974 797 975 806 q 965 656 969 775 q 1135 692 1075 674 q 1153 698 1140 693 q 1178 703 1167 703 q 1197 699 1188 703 q 1269 640 1240 672 q 1321 549 1297 608 q 1324 532 1324 538 q 1306 502 1324 514 q 1246 494 1289 490 q 1153 499 1219 499 l 1072 497 l 1003 494 l 961 492 q 957 133 957 307 q 960 -3 957 25 q 963 -43 963 -31 q 949 -124 963 -89 q 914 -178 935 -160 q 875 -197 893 -197 q 826 -172 858 -197 q 769 -111 793 -147 q 749 -43 744 -75 q 770 182 760 31 q 785 481 781 333 l 672 472 l 668 415 q 610 169 657 289 q 469 -30 564 50 q 229 -110 374 -110 m 679 842 q 693 817 693 835 q 690 792 693 807 q 685 765 686 776 q 678 647 681 729 l 678 619 l 788 632 q 783 772 788 717 q 777 818 781 800 q 764 858 774 836 q 668 847 726 856 l 679 842 z "},"我":{"ha":1389,"x_min":99,"x_max":1263,"o":"m 225 115 q 156 165 194 125 q 107 228 118 206 q 99 251 99 244 q 121 272 99 265 q 386 364 226 301 l 386 524 q 269 500 307 510 q 242 496 257 496 q 204 508 222 496 q 153 555 178 526 q 124 606 128 583 q 142 627 122 621 q 200 636 163 633 l 385 656 l 385 728 q 378 797 385 735 q 183 761 256 761 q 174 765 178 761 q 169 772 169 768 q 178 783 169 779 q 372 921 269 842 q 492 1038 474 1000 q 526 1069 504 1069 q 556 1060 539 1069 q 623 1012 588 1043 q 672 951 658 981 q 631 897 688 926 q 535 853 599 879 q 561 803 561 831 q 560 786 561 794 q 557 771 558 778 q 550 718 550 733 l 550 675 q 714 697 667 690 q 693 976 703 835 q 687 1043 692 1006 q 678 1094 682 1081 q 674 1110 674 1106 q 680 1120 674 1118 q 701 1121 686 1122 q 789 1101 729 1119 q 867 1071 849 1083 q 883 1043 883 1058 q 881 1023 883 1036 q 876 999 878 1010 q 871 956 875 988 q 867 894 867 925 q 874 722 867 810 q 1033 756 978 740 q 1088 765 1064 765 q 1139 744 1113 765 q 1200 640 1200 694 q 1158 607 1200 611 q 885 590 1022 603 q 919 390 900 472 q 989 558 976 494 q 994 570 990 568 q 1010 572 999 572 q 1072 544 1040 563 q 1119 508 1103 525 q 1136 467 1143 485 l 1108 408 q 1042 293 1068 335 q 981 208 1017 251 q 1035 118 1008 151 q 1092 56 1061 85 q 1111 46 1100 46 q 1128 53 1121 46 q 1183 131 1150 75 l 1206 165 q 1217 174 1213 174 q 1226 161 1226 174 q 1230 55 1226 94 q 1243 -32 1233 15 q 1247 -50 1244 -42 q 1251 -64 1250 -58 q 1263 -121 1263 -103 q 1242 -160 1263 -147 q 1167 -168 1221 -174 q 1104 -153 1143 -168 q 1040 -119 1065 -139 q 937 -22 988 -82 q 854 94 886 38 q 581 -18 739 17 l 579 -18 q 564 -6 569 -18 q 563 10 558 6 q 800 217 679 71 q 756 376 774 290 q 725 574 739 463 l 664 565 q 549 550 615 560 q 547 429 547 510 l 688 486 q 703 490 696 490 q 714 479 714 490 q 699 449 714 465 q 547 318 650 399 q 546 74 546 218 q 542 -7 546 21 q 529 -65 539 -35 q 500 -115 518 -96 q 447 -151 482 -133 q 422 -158 431 -158 q 394 -149 407 -158 q 367 -124 382 -139 q 344 -100 353 -108 q 333 -88 339 -94 q 319 -75 326 -82 q 278 -33 297 -50 q 238 -4 260 -15 q 229 7 229 0 q 233 15 229 11 q 242 18 236 18 q 342 28 304 18 q 363 44 356 32 q 375 92 369 57 q 382 172 375 90 l 383 203 l 292 144 q 252 117 263 122 q 225 115 242 113 m 900 981 q 892 1001 892 993 q 915 1013 892 1013 q 1072 982 1013 1015 q 1108 948 1096 969 q 1119 903 1119 926 q 1101 844 1119 872 q 1049 804 1082 817 q 1038 803 1044 803 q 1006 822 1018 803 q 953 901 1006 822 q 929 938 944 914 q 900 981 914 963 z "},"斌":{"ha":1389,"x_min":-14,"x_max":1361,"o":"m 525 -58 q 478 36 489 -11 q 474 58 474 57 q 517 85 474 83 q 542 88 525 85 q 518 361 538 244 l 518 368 q 539 386 518 386 q 615 371 578 386 q 661 332 653 356 q 671 288 671 313 q 668 238 671 282 q 667 203 668 231 q 664 115 665 175 q 699 126 686 124 q 679 521 694 358 q 663 519 674 519 q 622 529 640 519 q 554 588 603 538 q 528 553 551 574 q 500 517 504 529 q 478 443 496 503 q 457 378 469 419 q 435 310 444 338 q 486 242 475 269 q 503 172 503 207 q 422 69 503 106 q 406 65 413 65 q 368 99 382 65 q 349 133 365 107 q 215 -9 297 53 q 3 -121 132 -71 q -6 -122 0 -122 q -14 -111 -14 -122 q -10 -99 -14 -103 q 142 70 72 -28 q 258 275 211 168 q 146 435 182 388 q 142 446 142 442 q 157 456 142 456 q 171 454 165 456 q 304 396 242 429 q 329 517 324 461 l 329 522 q 311 536 329 542 l 188 499 q 151 492 168 492 q 128 499 139 492 q 90 540 111 508 q 64 594 69 572 q 63 604 63 597 q 85 625 63 621 q 375 708 271 658 q 426 725 411 725 q 449 721 436 725 q 495 687 469 713 q 539 632 521 661 q 572 644 547 643 q 857 701 672 653 q 838 938 844 835 q 822 985 836 958 q 794 1033 808 1011 q 775 1064 781 1056 q 768 1088 768 1076 q 776 1106 768 1099 q 794 1114 783 1113 q 986 1065 907 1113 q 1015 1018 1015 1047 q 1013 997 1015 1011 q 993 856 993 932 q 996 738 993 815 q 1044 751 1007 742 l 1083 763 q 1133 776 1119 775 q 1233 699 1176 779 q 1247 669 1247 683 q 1242 653 1247 664 q 1210 635 1229 639 q 1150 629 1192 632 l 1083 624 q 1004 611 1050 619 q 1181 104 1040 242 q 1213 88 1196 88 q 1243 103 1231 88 q 1270 138 1260 119 q 1285 163 1281 157 l 1315 213 q 1325 219 1321 219 q 1332 204 1332 219 q 1331 124 1331 174 q 1344 11 1331 51 q 1356 -22 1351 -6 q 1361 -51 1361 -39 q 1351 -83 1361 -69 q 1307 -124 1333 -110 q 1251 -139 1281 -139 q 1153 -96 1201 -139 q 1049 17 1094 -47 q 967 174 1003 81 l 960 168 q 936 151 950 161 q 904 129 922 142 q 607 -72 665 -37 q 568 -85 585 -85 q 525 -58 542 -85 m 164 979 q 150 999 150 990 q 178 1015 150 1011 q 224 1018 208 1018 q 357 987 303 1018 q 411 897 411 956 q 396 836 411 858 q 350 797 381 814 q 335 793 344 793 q 299 808 314 793 q 253 871 281 828 q 211 930 231 904 q 164 979 192 956 m 519 797 q 523 819 511 810 q 554 833 535 829 q 633 851 589 839 q 703 875 678 864 q 751 883 732 883 q 775 879 767 883 q 809 847 793 868 q 829 806 825 826 q 831 793 831 801 q 806 765 831 767 q 674 739 742 760 q 625 726 647 731 l 614 725 q 567 742 589 725 q 519 797 544 760 m 799 567 q 824 536 814 554 q 829 503 829 524 q 826 442 829 492 q 825 428 826 432 q 856 435 832 429 q 894 439 893 439 q 871 586 879 519 l 842 578 q 799 567 826 575 m 821 171 q 953 214 911 203 q 919 328 933 267 l 914 328 q 822 310 872 325 q 821 171 822 229 m 1071 942 q 1069 948 1071 944 q 1067 957 1067 951 q 1083 968 1067 967 l 1103 969 q 1165 962 1132 969 q 1221 940 1199 954 q 1282 858 1282 907 q 1265 809 1282 832 q 1218 771 1247 786 q 1208 769 1215 769 q 1190 774 1200 769 q 1175 785 1181 779 q 1117 872 1156 810 q 1094 908 1108 886 q 1071 942 1081 929 z "},"是":{"ha":1389,"x_min":53,"x_max":1360,"o":"m 65 -129 q 53 -122 53 -129 q 65 -108 53 -115 q 217 20 153 -61 q 318 190 282 101 q 361 349 354 278 q 376 372 364 372 q 389 369 381 372 q 463 330 425 353 q 525 285 500 307 q 539 264 539 276 q 531 243 539 254 q 519 225 526 235 q 508 208 511 215 l 507 204 q 581 174 540 189 q 593 392 593 299 q 592 406 593 401 q 272 361 357 378 q 243 358 253 358 q 175 375 207 358 q 124 415 146 394 q 86 467 103 436 q 82 482 82 475 q 110 504 82 503 q 399 528 196 507 q 801 577 603 549 q 1085 629 999 606 q 1111 635 1104 635 q 1144 626 1124 635 q 1206 574 1172 611 q 1247 519 1240 538 q 1257 492 1257 504 q 1246 469 1257 478 q 1219 460 1235 461 q 782 426 1082 460 q 778 411 782 418 q 763 356 763 394 l 763 325 q 886 357 833 336 q 913 364 904 364 q 976 332 939 364 q 1024 281 1013 300 q 1031 257 1031 268 q 1023 239 1031 246 q 1003 232 1015 232 q 801 208 881 225 q 775 204 792 204 q 758 206 764 204 l 758 111 q 1078 25 922 58 l 1117 17 q 1235 -9 1193 -1 q 1340 -22 1276 -17 q 1360 -35 1360 -24 q 1351 -53 1360 -43 q 1174 -178 1272 -122 q 1092 -201 1131 -201 q 1034 -191 1065 -201 q 954 -158 1003 -181 q 680 -26 803 -87 q 458 103 557 36 q 299 -56 399 11 q 68 -129 200 -122 l 65 -129 m 357 1049 q 353 1058 353 1056 q 367 1069 353 1067 q 410 1072 394 1072 q 521 1057 471 1072 q 678 1096 597 1074 q 792 1132 758 1118 q 811 1136 803 1136 q 842 1128 824 1136 q 904 1091 869 1118 q 961 1042 939 1064 q 979 1004 979 1024 q 974 986 979 993 q 954 932 961 969 q 943 835 951 921 q 928 697 933 732 q 905 628 921 649 q 839 590 889 607 q 822 588 828 588 q 778 614 800 588 l 739 660 q 582 639 649 650 l 583 608 q 566 566 583 582 q 519 550 549 550 q 453 568 489 550 q 410 660 414 588 q 357 1049 400 990 m 568 889 q 668 918 624 901 q 682 919 672 919 q 726 901 710 919 q 757 856 743 883 q 758 846 758 853 q 751 826 758 835 q 732 817 744 818 q 579 797 707 811 l 572 797 q 575 742 575 758 q 761 771 686 757 l 790 775 q 793 869 793 833 l 792 979 q 783 992 792 986 q 763 997 775 999 q 565 960 660 983 l 568 889 z "},"栈":{"ha":1389,"x_min":-15,"x_max":1300,"o":"m 10 113 q -3 110 1 110 q -15 121 -15 110 q -3 144 -15 132 q 156 331 76 214 q 296 588 236 447 l 296 607 q 215 578 254 594 q 197 571 210 574 q 172 568 183 568 q 125 598 156 568 q 75 669 94 628 q 71 683 71 678 q 96 699 71 699 q 224 713 153 699 q 294 725 260 718 l 292 921 q 271 1064 292 1001 q 268 1086 268 1081 q 308 1125 268 1125 q 395 1105 351 1125 q 457 1064 439 1085 q 472 1014 472 1043 q 467 972 472 996 q 460 936 461 947 q 451 758 454 897 q 500 771 493 768 q 554 783 533 783 q 576 778 567 783 q 619 739 599 763 q 649 690 639 715 l 651 679 q 641 663 651 668 q 618 657 631 657 q 479 644 549 657 l 450 639 q 449 607 450 618 q 546 574 510 594 q 594 535 574 560 q 611 486 615 510 q 588 440 607 461 q 547 419 568 419 q 522 428 535 419 q 449 504 497 443 l 449 410 q 451 122 449 258 q 457 -61 454 -14 q 445 -135 460 -106 q 401 -164 431 -164 q 342 -137 367 -164 q 305 -92 317 -111 q 290 -68 293 -72 q 282 -35 282 -51 q 286 -10 282 -25 q 295 24 289 1 q 301 65 301 47 l 299 331 q 167 201 238 251 q 10 113 96 150 m 543 -53 q 864 147 719 31 q 793 344 826 224 q 706 304 731 318 q 671 296 696 296 q 629 304 649 296 q 550 367 586 324 q 536 393 536 382 q 568 414 536 410 q 764 468 628 421 q 753 536 756 513 l 742 536 q 704 543 719 536 q 625 607 663 564 q 611 633 611 625 q 644 654 611 650 q 732 669 686 658 q 707 925 717 788 q 693 996 706 957 q 668 1057 681 1035 q 663 1082 663 1069 q 669 1102 663 1094 q 688 1110 676 1110 q 871 1056 790 1110 q 896 1010 896 1039 q 893 986 896 994 q 874 851 874 914 q 876 793 874 825 q 878 746 878 761 q 881 714 881 724 l 967 744 q 990 755 972 747 q 1018 764 1007 763 q 1072 751 1043 769 q 1124 700 1101 732 q 1138 667 1138 685 q 1129 647 1138 656 q 1109 632 1117 635 q 1081 628 1101 629 q 1007 619 1033 624 q 893 589 958 613 q 903 518 899 542 q 1039 569 990 553 q 1063 579 1046 572 q 1092 588 1081 586 q 1106 589 1096 589 q 1151 572 1128 589 q 1194 529 1175 556 q 1213 482 1213 503 q 1204 467 1213 469 q 1181 458 1196 461 q 1149 454 1167 456 q 1079 443 1090 446 q 931 397 1022 431 q 982 260 953 321 q 1063 374 1040 324 q 1073 399 1068 385 q 1083 420 1078 414 q 1100 426 1089 426 q 1156 397 1126 426 q 1190 343 1185 367 q 1199 304 1199 315 q 1186 267 1199 286 q 1132 206 1163 235 q 1056 140 1101 178 q 1114 74 1083 107 q 1140 58 1128 58 q 1159 67 1150 58 q 1169 79 1168 76 q 1190 108 1179 88 q 1211 156 1200 129 l 1229 197 q 1238 207 1233 207 q 1244 194 1243 207 q 1258 67 1251 106 q 1278 -6 1264 28 q 1290 -33 1279 -10 q 1300 -75 1300 -56 q 1293 -103 1300 -90 q 1199 -168 1261 -168 q 1110 -137 1157 -168 q 921 46 993 -64 q 732 -44 828 -10 q 546 -83 636 -79 q 528 -71 528 -83 q 543 -53 528 -58 m 965 967 q 960 979 960 975 q 985 990 960 990 q 1053 979 1017 990 q 1115 951 1089 968 q 1168 872 1168 918 q 1150 823 1168 846 q 1100 786 1132 800 q 1093 785 1097 785 q 1074 790 1083 785 q 1061 801 1065 796 q 965 967 1007 876 z "},"注":{"ha":1389,"x_min":82,"x_max":1326,"o":"m 203 -139 q 139 -49 172 -110 q 93 58 106 11 q 92 74 92 64 q 98 91 92 86 q 118 101 104 96 l 138 107 q 206 165 179 121 q 333 389 264 253 q 451 646 401 525 q 471 660 457 660 q 481 653 478 660 q 483 638 485 647 q 385 194 438 406 q 292 -114 333 -18 q 268 -141 283 -131 q 236 -151 253 -151 q 203 -139 218 -151 m 85 697 q 82 710 82 706 q 101 728 82 726 q 158 731 138 731 q 329 614 319 731 q 317 546 332 581 q 276 488 301 511 q 228 461 251 465 q 206 467 217 460 q 189 488 194 475 q 179 509 183 499 q 171 528 175 519 q 157 557 163 547 q 127 620 151 569 q 85 697 103 671 m 260 989 q 257 1000 257 997 q 275 1019 257 1018 l 306 1021 q 428 994 381 1021 q 475 910 475 968 q 457 833 475 860 q 404 786 439 806 q 376 790 393 782 q 350 813 360 797 q 307 888 326 849 q 260 989 288 926 m 457 -26 q 443 11 443 -7 q 500 44 443 42 q 775 61 613 47 q 782 260 781 183 q 707 249 718 251 q 653 263 681 243 q 607 311 625 282 q 589 360 589 340 q 600 386 589 376 q 632 396 611 396 q 782 411 683 396 q 768 600 782 558 q 683 581 708 589 q 667 578 672 578 q 607 608 638 578 q 557 679 576 639 q 553 694 553 688 q 566 717 553 708 q 600 725 579 725 q 829 752 656 725 q 1083 796 1003 779 q 1117 799 1108 799 q 1160 779 1146 799 q 1187 740 1174 765 q 1207 694 1200 715 q 1210 675 1210 681 q 1171 639 1210 639 q 950 624 1085 639 l 958 617 q 975 579 981 601 q 964 442 968 528 l 1026 453 q 1053 456 1046 456 q 1096 447 1078 456 q 1121 429 1114 439 q 1167 351 1150 400 q 1169 331 1169 338 q 1160 300 1169 313 q 1133 288 1151 288 q 958 279 1061 288 l 956 76 q 1183 108 1108 90 q 1210 113 1199 113 q 1247 96 1233 113 q 1321 -14 1293 51 q 1326 -37 1326 -25 q 1308 -70 1326 -60 q 1263 -78 1289 -81 q 1090 -72 1197 -72 q 824 -83 957 -72 q 606 -114 690 -94 q 578 -117 596 -117 q 457 -26 506 -117 m 710 1051 q 707 1068 707 1060 q 736 1090 707 1090 q 835 1074 781 1090 q 928 1032 889 1058 q 967 985 953 1014 q 981 922 981 956 q 960 847 981 882 q 899 797 939 813 q 882 793 890 793 q 832 821 856 793 q 778 919 817 844 l 765 946 l 756 965 q 736 1003 750 975 q 710 1047 722 1031 l 710 1051 z "},"洋":{"ha":1389,"x_min":110,"x_max":1314,"o":"m 217 -93 q 156 -8 188 -65 q 113 94 125 50 l 110 113 q 117 131 110 125 q 146 143 125 138 q 187 158 169 149 q 221 190 204 167 q 354 420 283 286 q 468 660 425 554 q 478 668 472 668 q 484 665 482 668 q 485 656 486 661 l 451 513 q 359 134 393 264 q 290 -72 325 4 q 270 -94 283 -86 q 243 -103 257 -103 q 217 -93 228 -103 m 121 706 q 111 725 111 722 q 118 734 111 732 q 142 736 125 736 q 237 717 189 736 q 316 666 285 699 q 347 593 347 633 q 318 518 347 549 q 256 488 289 488 q 219 510 228 488 q 121 706 157 647 m 254 994 q 246 1011 246 1006 q 255 1022 246 1018 q 276 1025 264 1025 q 358 1010 311 1025 q 438 965 404 994 q 472 894 472 935 q 459 842 472 863 q 421 808 446 822 q 392 801 404 801 q 360 818 371 801 q 326 878 336 860 q 254 994 279 967 m 460 296 q 453 319 453 313 q 481 339 453 339 q 792 364 551 339 q 790 446 792 418 q 706 436 715 436 q 685 435 697 435 q 666 438 674 435 q 646 450 658 440 q 622 474 635 457 q 603 508 608 492 l 601 514 q 606 519 601 518 q 614 522 610 521 q 621 524 618 524 l 785 550 l 783 565 q 760 635 781 594 q 749 663 758 640 l 747 667 l 679 656 q 665 654 675 654 q 608 675 638 654 q 564 721 579 696 q 560 735 560 728 q 569 750 560 744 q 596 756 579 756 q 849 796 650 756 q 911 956 892 883 q 931 1081 931 1029 q 928 1114 931 1094 l 928 1119 q 937 1141 928 1135 q 958 1143 946 1147 q 1081 1058 1029 1125 q 1091 1040 1086 1051 q 1096 1018 1096 1029 q 1086 990 1096 1001 q 1028 914 1069 974 q 956 817 999 869 l 1053 838 q 1089 842 1074 842 q 1132 828 1118 842 q 1175 754 1149 814 q 1179 738 1179 746 q 1150 711 1179 713 q 886 685 1076 706 q 942 663 918 675 q 960 646 954 654 q 967 624 967 638 q 961 594 967 610 l 958 579 l 1008 589 q 1026 590 1014 590 q 1075 574 1057 590 q 1105 539 1089 563 q 1126 497 1121 515 l 1128 492 q 1094 472 1128 472 q 949 464 1032 472 l 946 381 q 1186 414 1135 401 q 1208 417 1203 417 q 1242 410 1228 417 q 1263 394 1256 403 q 1298 341 1282 374 q 1314 286 1314 308 q 1306 259 1314 269 q 1285 249 1299 249 l 1246 251 q 1194 254 1233 251 q 1110 257 1154 257 q 964 251 1040 257 l 943 250 q 942 131 942 210 q 947 -42 942 3 q 949 -64 949 -49 q 933 -144 949 -107 q 896 -199 918 -181 q 854 -211 874 -218 q 815 -179 835 -206 q 783 -115 794 -153 q 774 -42 771 -78 q 790 236 786 128 q 550 203 700 228 q 501 223 522 197 q 460 296 481 249 m 610 996 q 607 1001 608 997 q 606 1010 606 1004 q 636 1026 606 1026 q 758 1003 718 1026 q 806 959 790 983 q 822 908 822 935 q 806 856 822 882 q 761 813 789 831 q 750 810 753 810 q 733 815 742 810 q 721 826 725 821 q 610 996 664 939 z "},"热":{"ha":1389,"x_min":79,"x_max":1322,"o":"m 497 196 q 478 206 483 196 q 479 221 472 215 q 640 485 585 324 q 597 519 631 493 q 567 556 567 543 q 592 574 567 569 q 669 582 628 585 q 689 668 676 608 q 650 658 657 660 q 638 657 646 657 q 599 674 615 657 l 521 614 l 517 436 l 517 406 q 513 333 517 360 q 493 278 508 306 q 457 236 476 253 q 421 214 438 219 q 390 207 404 207 q 360 221 369 207 q 218 393 278 344 q 213 404 213 399 q 217 412 213 410 q 228 413 221 414 q 270 406 254 407 q 297 404 286 404 q 313 404 307 404 q 338 418 328 404 q 351 450 347 432 l 356 501 q 242 436 288 461 q 199 425 217 425 q 154 442 174 425 q 83 547 114 485 q 79 561 79 556 q 89 572 79 568 q 125 579 99 576 q 367 636 219 592 l 372 743 l 356 738 q 308 726 333 726 q 285 731 296 726 q 199 794 226 753 q 190 813 190 803 q 195 825 190 819 q 208 832 200 831 q 374 872 289 847 l 371 947 q 351 1047 364 1010 q 343 1069 349 1056 q 338 1090 338 1083 q 357 1103 338 1103 q 451 1092 400 1103 q 528 1068 503 1081 q 547 1043 547 1061 q 546 1031 547 1036 q 544 1018 544 1025 q 538 931 539 956 l 547 935 q 582 942 565 942 q 606 936 594 942 q 645 901 624 922 q 674 861 667 879 q 672 842 681 847 q 635 832 664 838 q 575 815 589 821 q 529 796 544 801 q 524 690 526 763 l 576 710 l 565 736 q 563 750 563 747 q 583 767 563 765 q 706 796 604 769 l 710 856 q 713 936 713 917 q 696 1099 713 1029 q 722 1131 690 1131 q 743 1128 726 1131 q 840 1092 789 1119 q 904 1049 892 1065 q 925 1010 925 1031 q 907 958 925 992 q 889 851 901 949 q 933 867 926 863 q 955 877 940 869 q 981 885 969 885 q 992 882 988 885 q 1065 844 1028 867 q 1110 803 1101 821 q 1115 783 1115 789 q 1103 751 1115 771 q 1085 717 1093 735 q 1076 690 1078 699 q 1056 549 1056 622 q 1133 375 1056 413 q 1146 372 1138 372 q 1172 398 1164 372 q 1185 449 1181 424 q 1190 482 1189 475 q 1204 519 1193 500 q 1219 522 1215 539 q 1303 321 1263 378 q 1322 268 1322 293 q 1280 203 1322 228 q 1190 178 1238 178 q 1169 179 1176 178 q 999 271 1065 197 q 919 439 933 344 q 910 561 910 503 q 916 658 910 614 q 924 715 922 703 q 926 731 926 726 q 914 742 926 742 l 900 739 q 888 735 896 738 q 869 728 881 732 q 860 688 864 700 q 814 543 840 608 q 872 481 853 518 q 890 406 890 444 q 874 341 890 367 q 835 315 858 315 q 781 342 806 315 l 736 389 q 625 260 685 310 q 503 196 565 211 l 497 196 m 118 -50 q 147 3 118 -19 q 232 81 186 35 q 311 171 278 128 q 331 182 321 182 q 344 176 338 182 q 354 158 351 169 q 358 119 358 144 q 343 6 358 72 q 303 -112 328 -60 q 247 -176 278 -164 q 235 -179 239 -179 q 185 -158 213 -179 q 138 -108 157 -137 q 118 -50 118 -78 m 453 122 q 449 140 449 139 q 468 154 449 154 q 563 126 510 154 q 640 60 617 99 q 661 -7 661 28 q 634 -80 661 -47 q 560 -137 607 -112 q 549 -140 556 -140 q 531 -134 539 -140 q 521 -118 522 -128 q 488 0 506 -72 q 453 122 468 79 m 706 126 q 700 146 700 140 q 735 167 700 167 q 815 145 765 167 q 888 99 864 124 q 925 11 925 60 q 901 -60 925 -26 q 838 -115 878 -93 q 824 -118 829 -118 q 801 -100 807 -118 q 706 126 764 17 m 964 138 q 958 154 958 146 q 981 171 958 171 q 1001 168 985 171 q 1108 129 1050 157 q 1197 78 1167 101 q 1233 -3 1233 47 q 1210 -85 1233 -44 q 1150 -149 1186 -126 q 1126 -156 1136 -156 q 1079 -111 1100 -156 q 1023 24 1054 -44 q 964 138 992 92 z "},"爱":{"ha":1389,"x_min":96,"x_max":1264,"o":"m 219 383 q 174 419 200 390 q 144 468 149 449 q 178 531 138 494 q 229 610 204 558 q 260 717 254 661 q 282 740 263 740 q 300 735 290 740 q 337 708 318 722 q 369 679 356 694 q 394 681 376 681 q 444 686 413 682 q 413 740 438 699 q 363 810 388 782 q 357 824 357 817 q 363 835 357 831 q 381 839 369 839 q 444 827 410 839 q 504 800 478 815 q 549 733 549 776 q 540 699 549 715 l 611 707 q 543 844 568 801 q 538 860 538 854 q 557 871 538 871 q 626 853 590 871 q 688 814 663 836 q 722 747 722 785 q 717 721 722 732 l 750 725 q 785 821 769 767 q 804 907 801 875 l 804 913 q 585 881 700 893 q 390 869 469 869 q 339 871 354 869 q 323 877 329 872 q 317 888 317 882 q 333 904 317 900 q 790 1078 671 1007 q 860 1139 838 1107 q 890 1160 874 1160 q 910 1153 900 1160 q 982 1079 946 1131 q 1018 1003 1018 1028 q 1008 973 1018 986 q 978 954 999 960 q 882 929 944 943 q 960 886 946 906 q 967 867 967 878 q 960 847 967 857 q 940 822 954 838 q 846 739 911 789 q 1004 764 992 761 q 1043 781 1025 768 q 1058 788 1053 786 q 1072 786 1064 789 q 1147 749 1106 776 q 1210 700 1189 722 q 1232 657 1232 675 q 1203 624 1232 635 q 1089 579 1172 613 q 975 535 985 538 l 964 532 q 951 544 951 532 q 954 557 951 553 q 979 626 974 604 l 981 632 q 968 639 981 642 q 657 599 879 632 q 722 525 703 567 q 883 557 840 546 q 904 560 900 560 q 940 542 924 560 q 973 497 960 524 q 986 451 986 469 q 949 426 986 426 q 685 400 867 426 l 661 350 l 651 329 q 819 368 799 357 q 843 375 836 375 q 864 369 847 375 q 948 318 907 351 q 989 263 989 285 q 977 231 989 249 q 958 201 965 213 q 872 69 924 132 q 972 25 929 42 q 1120 -35 1043 -7 q 1247 -78 1197 -64 q 1259 -85 1254 -81 q 1264 -94 1264 -89 q 1250 -114 1264 -104 q 1156 -164 1215 -139 q 1053 -193 1097 -189 l 1029 -194 q 974 -187 999 -194 q 918 -160 949 -179 q 750 -40 840 -114 q 326 -175 585 -157 l 324 -175 q 306 -164 306 -175 q 322 -147 306 -154 q 647 44 528 -69 q 539 146 585 100 q 350 -36 454 32 q 115 -133 246 -104 l 107 -135 q 96 -128 96 -135 q 113 -106 96 -118 q 328 105 224 -25 q 490 368 432 235 l 465 364 q 449 361 454 361 q 399 378 428 361 q 353 442 374 394 q 343 467 343 457 q 371 479 343 482 q 535 494 408 478 q 551 582 546 539 q 482 568 490 571 q 454 564 468 564 q 422 569 435 564 q 376 610 406 581 q 374 594 376 606 q 336 493 363 551 q 290 408 310 435 q 243 378 268 378 q 219 383 231 378 m 592 222 q 729 140 643 186 q 772 225 757 183 q 774 235 774 229 q 761 242 774 243 q 647 226 669 226 q 606 246 625 226 l 592 222 z "},"目":{"ha":1389,"x_min":332,"x_max":1124,"o":"m 472 -131 q 457 -133 467 -133 q 398 -106 429 -133 q 353 -50 367 -78 q 338 35 338 -15 q 342 76 338 60 q 356 435 356 165 q 350 771 356 611 q 336 969 344 931 q 332 1003 332 989 q 378 1040 332 1046 q 463 1015 415 1035 q 540 972 511 994 q 842 1011 783 997 q 865 1022 854 1014 q 885 1040 875 1031 q 908 1060 899 1054 q 928 1067 917 1067 q 992 1045 951 1067 q 1069 994 1032 1024 q 1119 939 1106 964 q 1124 922 1124 931 q 1114 890 1124 913 q 1103 858 1106 871 q 1089 488 1089 797 q 1092 239 1089 389 l 1093 96 q 1072 -32 1093 24 q 1013 -118 1050 -87 q 931 -149 976 -149 q 897 -129 910 -149 q 867 -65 883 -110 q 847 -24 857 -43 q 825 10 838 -6 q 546 -8 699 11 l 544 6 q 519 -87 540 -51 q 472 -131 497 -122 m 544 825 q 546 686 544 736 l 683 711 l 728 719 q 771 724 753 724 q 832 697 801 724 q 869 647 863 671 q 871 635 871 643 q 855 598 871 613 q 804 582 839 583 q 696 572 785 582 q 590 558 607 563 q 576 557 586 557 q 546 563 565 557 l 546 440 q 743 469 657 454 q 783 474 767 474 q 808 469 799 474 q 852 439 835 461 q 874 396 869 417 q 875 381 875 390 q 858 339 875 356 q 807 322 842 322 q 688 316 767 321 q 593 308 610 311 q 581 307 589 307 q 546 315 561 307 l 546 147 q 775 169 642 161 l 832 174 q 860 160 846 175 q 885 118 874 146 l 885 124 q 890 506 890 321 q 885 832 890 708 q 876 852 885 847 q 851 857 867 857 q 713 847 806 857 q 544 825 621 838 z "},"程":{"ha":1389,"x_min":-3,"x_max":1365,"o":"m 38 96 q 13 92 24 92 q -3 100 -3 92 q 21 131 -3 111 q 190 328 117 217 q 283 510 263 439 l 224 493 q 199 489 211 489 q 101 558 150 489 q 92 581 92 569 q 121 601 92 597 q 319 643 204 611 q 318 715 319 693 q 312 769 315 750 q 299 813 308 789 q 151 799 210 800 q 140 801 144 799 q 136 807 136 804 q 154 824 136 815 q 280 890 197 836 q 403 982 363 943 q 433 1012 424 1000 q 453 1043 442 1024 q 482 1063 464 1063 q 501 1057 492 1063 q 552 1005 528 1040 q 583 938 576 969 q 582 913 586 929 q 560 889 578 897 q 493 861 522 869 q 414 836 458 847 q 471 813 449 826 q 487 797 482 807 q 492 772 492 788 q 490 747 492 757 l 486 694 q 517 699 506 699 q 550 685 539 699 q 604 615 592 653 q 610 597 610 606 q 603 582 610 588 q 588 576 596 576 q 479 561 535 572 q 478 494 479 517 q 561 468 529 488 q 619 388 619 438 q 603 339 619 363 q 558 301 586 315 q 550 300 556 300 q 531 304 540 300 q 519 314 522 308 q 475 374 497 340 l 474 201 q 478 -4 474 49 l 479 -24 q 455 -128 479 -78 q 401 -179 431 -179 q 360 -149 379 -179 q 340 -116 354 -139 q 317 -72 325 -93 q 310 -28 310 -51 q 314 7 310 -12 q 324 314 324 51 q 38 96 206 149 m 519 15 q 514 33 514 25 q 536 46 514 47 q 833 65 636 46 q 838 196 838 122 l 781 188 q 756 185 764 185 q 700 196 731 185 q 658 227 678 208 q 631 268 639 246 q 622 286 622 279 q 644 299 622 299 q 838 314 732 300 q 833 422 838 331 q 776 411 813 419 q 749 407 763 407 q 694 419 722 407 q 621 496 651 440 q 613 515 613 507 q 636 528 613 528 q 1114 617 968 560 q 1138 622 1125 622 q 1163 617 1150 622 q 1217 570 1186 604 q 1254 524 1249 536 q 1261 499 1261 510 q 1253 476 1261 485 q 1233 468 1244 468 l 1183 464 l 1024 449 q 1017 399 1017 433 q 1015 343 1015 386 q 1107 365 1072 356 q 1135 371 1126 371 q 1151 364 1146 371 q 1206 317 1178 346 q 1238 276 1235 288 q 1243 256 1243 267 q 1235 236 1243 243 q 1214 228 1226 229 q 1015 217 1124 228 q 1018 88 1015 171 q 1207 122 1124 101 q 1233 125 1229 125 q 1265 117 1249 125 q 1322 67 1293 104 q 1360 10 1351 31 q 1365 -14 1365 -1 q 1356 -38 1365 -29 q 1335 -47 1347 -47 l 1279 -46 q 988 -60 1151 -46 q 689 -92 824 -75 q 663 -94 672 -94 q 599 -76 628 -94 q 556 -39 576 -64 q 519 15 535 -14 m 631 999 q 629 1004 629 1000 q 638 1019 629 1013 q 657 1026 646 1026 q 738 1014 694 1026 q 801 986 781 1001 q 997 1028 958 1008 l 1022 1040 q 1039 1049 1029 1043 q 1054 1056 1049 1054 q 1088 1063 1075 1063 q 1104 1058 1096 1063 q 1172 1021 1136 1044 q 1226 976 1207 997 q 1235 954 1235 968 q 1218 907 1235 935 q 1181 782 1197 857 l 1168 731 q 1151 688 1163 707 q 1128 657 1139 668 q 1079 631 1106 631 q 1058 635 1069 631 q 1024 657 1040 643 q 996 678 1007 671 q 838 658 911 669 l 838 656 q 825 615 840 629 q 790 601 810 601 q 678 678 686 601 q 675 714 678 676 q 658 890 668 814 q 631 999 649 967 m 829 876 q 832 769 832 838 q 1006 789 956 785 q 1010 888 1010 839 q 993 903 1010 904 q 922 893 976 901 q 839 881 885 885 q 829 879 832 881 l 829 876 z "},"端":{"ha":1389,"x_min":60,"x_max":1313,"o":"m 674 644 q 660 643 668 643 q 635 651 647 643 q 600 679 624 658 q 586 708 586 693 q 592 726 586 719 q 601 745 597 736 q 606 760 606 754 q 597 871 608 807 l 593 901 q 586 932 592 915 q 572 960 581 949 q 567 978 567 967 q 594 1003 567 1003 q 670 992 633 1003 q 728 965 707 982 q 738 940 738 956 q 736 927 738 933 q 733 915 735 921 q 732 894 732 910 l 733 854 q 735 796 736 814 q 749 781 735 781 q 806 788 764 781 q 800 983 806 900 q 778 1104 794 1067 q 772 1128 772 1118 q 779 1149 772 1142 q 801 1154 786 1157 q 976 1068 953 1126 q 976 1050 979 1058 q 974 1039 974 1042 q 960 975 963 1015 l 957 938 q 953 883 956 915 q 950 813 951 851 q 1036 831 1013 824 l 1042 832 q 1051 919 1051 876 q 1039 993 1051 975 q 1038 1007 1038 997 q 1061 1029 1038 1029 q 1206 976 1140 1029 q 1213 961 1213 969 q 1206 936 1213 953 q 1196 896 1204 933 q 1193 868 1193 876 q 1172 732 1183 786 q 1161 689 1169 717 q 1199 684 1181 690 q 1226 668 1217 678 q 1264 603 1253 640 q 1267 581 1267 586 q 1242 553 1267 553 q 951 519 1169 553 q 965 499 957 513 q 968 485 968 490 q 943 446 968 464 l 933 438 l 1064 458 q 1090 464 1072 460 q 1117 472 1108 468 q 1132 481 1125 475 q 1156 490 1142 490 q 1216 462 1178 490 q 1304 390 1254 433 q 1313 369 1313 382 q 1300 328 1313 356 q 1288 289 1289 303 q 1271 136 1276 219 q 1265 -4 1265 53 q 1258 -79 1265 -42 q 1235 -136 1251 -117 q 1186 -184 1203 -171 q 1142 -201 1169 -197 q 1124 -195 1132 -203 q 1108 -169 1117 -187 q 1068 -110 1094 -144 q 1019 -58 1042 -75 q 1008 -43 1008 -50 q 1026 -32 1008 -32 q 1096 -31 1075 -32 q 1110 -18 1106 -31 q 1115 6 1114 -6 q 1115 19 1115 17 q 1124 196 1117 39 q 1126 286 1124 253 q 1122 315 1126 306 q 1103 324 1117 324 q 1013 313 1093 324 q 1043 288 1032 304 q 1056 265 1056 279 q 1054 254 1056 260 q 1053 242 1053 249 q 1049 176 1049 204 q 1051 114 1049 153 l 1053 57 q 1014 -29 1053 -29 q 993 -25 1006 -29 q 933 17 958 -8 q 913 68 908 42 q 924 179 924 113 q 908 300 924 258 l 856 293 l 869 281 q 881 253 881 268 q 879 240 881 246 q 878 228 878 233 q 874 164 874 199 q 876 110 874 142 q 878 64 878 79 q 882 -6 882 25 q 869 -63 882 -43 q 839 -83 857 -83 q 822 -79 831 -83 q 766 -33 789 -62 q 749 29 743 -3 q 756 119 756 57 q 742 276 756 215 l 701 268 l 700 239 l 701 -4 q 686 -122 701 -82 q 646 -162 671 -162 q 626 -157 636 -162 q 585 -123 601 -144 q 553 -58 569 -101 q 546 -33 546 -44 q 554 4 546 -26 q 567 151 567 86 q 563 243 567 168 l 558 318 l 522 285 q 399 174 494 260 q 196 -3 304 89 q 167 -12 182 -12 q 132 4 146 -12 q 99 54 118 18 q 65 128 81 90 q 60 151 60 138 q 69 181 60 169 q 93 192 78 193 q 110 190 99 190 q 145 195 126 190 q 185 207 164 200 l 226 224 q 271 242 246 232 q 325 264 296 251 q 390 446 369 382 q 411 558 411 510 q 408 588 411 571 l 408 596 q 431 619 408 619 q 508 592 467 618 q 567 535 549 565 q 576 510 576 524 q 565 478 576 494 q 529 435 554 463 l 506 408 q 397 293 439 329 q 554 363 471 324 l 550 390 q 549 401 549 394 q 561 419 549 418 q 582 421 567 421 q 635 415 607 421 q 683 400 664 410 l 775 413 q 828 499 804 451 q 696 471 721 479 q 683 469 692 469 q 638 485 663 469 q 597 525 614 500 q 579 576 579 550 q 588 597 579 589 q 614 606 596 606 q 806 626 656 604 q 1065 669 957 647 q 1036 701 1049 682 q 674 644 800 667 m 106 676 q 101 689 101 683 q 109 701 101 696 q 126 707 117 706 q 265 735 163 708 q 442 788 368 763 q 475 794 460 794 q 518 779 503 794 q 575 710 551 749 q 581 696 581 704 q 553 675 581 679 q 367 624 510 664 q 256 592 307 606 q 225 586 238 586 q 206 590 215 586 q 186 601 197 594 q 144 634 169 611 q 106 676 118 657 m 171 546 q 168 550 169 547 q 167 558 167 553 q 185 578 167 574 q 247 569 213 579 q 306 542 282 558 q 353 443 353 500 q 335 377 353 408 q 289 326 318 346 q 279 324 283 324 q 264 330 271 324 q 254 342 257 336 q 199 476 235 382 l 171 546 m 271 1011 q 267 1017 269 1013 q 265 1028 265 1022 q 279 1043 265 1040 q 324 1049 297 1049 q 404 1031 372 1049 q 456 981 439 1011 q 472 918 472 951 q 431 818 472 860 q 417 813 425 813 q 403 817 410 813 q 393 828 396 822 q 314 946 354 882 l 271 1011 z "},"经":{"ha":1389,"x_min":86,"x_max":1324,"o":"m 515 322 q 502 328 507 322 q 497 340 497 333 q 504 356 497 350 q 672 493 585 408 q 827 671 760 578 q 918 842 894 764 q 793 799 832 810 q 735 788 756 788 q 694 801 710 788 q 658 838 682 813 q 614 892 633 864 q 608 908 608 899 q 617 930 608 921 q 642 939 626 939 q 736 944 690 939 q 866 974 806 953 q 965 1019 926 994 q 1013 1033 993 1033 q 1036 1028 1022 1033 q 1092 995 1061 1021 q 1150 939 1122 969 q 1161 911 1161 928 q 1149 883 1161 896 q 1106 821 1117 844 q 1024 686 1057 736 q 1154 658 1089 682 q 1254 599 1219 633 q 1297 510 1297 551 q 1265 432 1297 475 q 1222 408 1246 408 q 1169 439 1196 408 q 1081 528 1140 474 q 972 617 1021 582 q 517 322 772 361 l 515 322 m 90 38 q 86 64 86 50 q 94 94 86 82 q 121 106 103 106 q 200 129 157 107 q 382 217 281 165 q 556 313 483 268 q 567 315 560 315 q 581 309 575 315 q 586 294 586 303 q 581 281 586 286 q 431 106 508 186 q 228 -92 353 26 q 194 -108 213 -108 q 161 -92 175 -108 q 103 13 143 -76 l 97 24 l 90 38 m 92 599 q 89 614 89 604 q 96 638 89 629 q 265 940 211 775 q 286 1010 279 979 q 293 1079 293 1042 q 318 1100 293 1100 q 356 1090 335 1100 q 416 1052 381 1079 q 465 1008 451 1025 q 478 978 478 992 q 447 913 478 956 q 376 806 422 881 q 299 672 331 732 q 299 669 297 669 q 385 679 349 674 l 396 699 q 434 767 419 736 q 463 843 449 799 q 483 856 467 856 q 525 839 501 856 q 573 797 550 821 q 607 756 596 774 q 614 731 614 746 q 603 694 614 713 q 579 664 593 676 q 529 608 571 656 q 504 578 521 597 q 378 433 440 499 q 549 464 499 450 q 572 460 563 465 q 581 444 581 454 q 563 418 581 431 l 444 342 q 274 231 339 276 q 233 214 249 214 q 190 239 214 214 q 160 281 176 251 q 133 336 143 310 q 131 349 131 342 q 163 396 131 372 q 293 535 224 439 q 261 525 279 529 q 215 510 261 525 q 185 503 197 503 q 157 513 172 503 q 92 599 118 542 m 543 -11 q 542 4 542 -6 q 568 40 542 36 q 850 53 683 40 q 849 156 851 103 q 842 239 846 210 q 758 221 796 232 q 736 218 744 218 q 674 244 701 218 q 636 307 646 269 q 635 319 635 311 q 672 354 635 353 q 853 378 728 356 q 1038 419 979 401 q 1078 425 1060 425 q 1118 413 1103 425 q 1153 360 1136 396 l 1160 351 q 1167 336 1161 343 q 1169 314 1169 322 q 1140 278 1169 282 q 983 261 1107 275 l 994 253 q 1008 207 1011 243 q 1007 194 1008 203 q 1006 172 1006 186 l 1004 154 q 1003 132 1004 139 l 1000 67 q 1181 96 1128 81 q 1194 98 1185 96 q 1211 100 1204 100 q 1242 92 1225 100 q 1291 36 1268 69 q 1319 -25 1314 3 q 1307 -70 1324 -47 q 1263 -90 1290 -93 l 1239 -89 l 1224 -87 q 1128 -82 1197 -85 l 1051 -81 q 657 -115 794 -81 q 599 -96 618 -118 q 569 -61 581 -76 q 543 -11 558 -46 z "},"编":{"ha":1389,"x_min":47,"x_max":1292,"o":"m 106 -50 q 56 81 89 -31 q 53 101 53 94 q 59 126 53 115 q 78 136 65 136 q 157 151 121 136 q 317 223 218 176 q 489 310 415 269 q 500 314 496 314 q 506 310 504 314 q 501 301 507 307 q 344 121 426 206 q 158 -56 261 36 q 133 -67 146 -67 q 106 -50 118 -67 m 50 561 q 47 576 47 569 q 54 593 47 588 q 168 747 126 676 q 240 897 210 818 q 268 1040 268 971 q 285 1054 268 1054 q 325 1043 296 1054 q 390 1005 351 1031 q 442 964 428 979 q 453 939 453 953 q 421 878 453 915 q 347 772 394 843 q 251 624 299 700 q 315 629 293 626 l 343 676 q 383 745 368 714 q 414 821 397 776 q 428 831 417 831 q 465 815 439 831 q 546 733 510 786 q 551 711 551 724 q 521 651 551 679 q 436 565 497 631 q 271 403 315 442 q 418 433 329 413 q 457 440 440 440 q 468 435 468 440 q 447 414 468 429 q 324 333 425 401 q 201 247 222 264 q 149 221 172 221 q 111 239 129 221 q 68 321 89 263 l 67 332 q 96 374 67 353 q 218 492 151 411 q 172 478 188 483 q 142 471 151 471 q 118 479 133 471 q 50 561 81 506 m 360 -115 q 508 232 458 46 q 567 643 558 418 q 566 737 567 701 q 561 803 565 772 q 535 874 554 839 q 529 894 529 885 q 540 908 529 906 q 581 911 551 911 q 700 886 651 911 l 715 876 q 853 893 760 879 q 832 907 840 899 q 758 1031 808 943 l 721 1097 q 719 1103 721 1099 q 717 1111 717 1107 q 724 1121 717 1118 q 750 1124 731 1124 q 827 1113 786 1124 q 900 1082 868 1101 q 964 990 964 1043 q 949 942 964 965 q 906 901 933 918 q 1028 926 1006 919 q 1064 946 1046 932 q 1106 961 1093 964 q 1174 922 1138 956 q 1226 857 1211 889 q 1229 847 1229 851 q 1214 810 1229 838 q 1199 776 1201 781 q 1188 753 1196 771 q 1175 714 1181 736 q 1174 708 1175 710 q 1215 643 1204 672 q 1210 617 1219 628 q 1161 608 1201 607 q 963 596 1113 610 q 754 571 814 582 q 711 569 725 568 q 708 535 710 557 q 703 496 706 513 q 865 510 746 497 q 1021 531 983 524 q 1072 541 1056 536 q 1101 554 1089 546 q 1131 564 1114 564 q 1156 558 1139 564 q 1223 525 1188 546 q 1282 485 1258 504 q 1292 465 1292 476 q 1277 429 1292 451 q 1261 401 1263 407 q 1251 142 1251 325 l 1251 17 q 1246 -41 1251 -15 q 1218 -97 1240 -67 q 1169 -147 1193 -129 q 1113 -169 1146 -165 q 1074 -147 1090 -171 q 1052 -117 1067 -139 q 1017 -76 1038 -96 q 969 -36 997 -56 q 957 -25 957 -31 q 975 -18 957 -18 l 1039 -18 q 1073 -8 1056 -17 q 1092 8 1090 0 q 1106 186 1100 60 l 1090 186 q 1050 185 1068 186 l 1047 76 q 1014 -10 1047 -10 q 999 -6 1007 -10 q 958 28 971 10 q 946 93 946 46 l 946 179 l 893 176 q 892 61 892 132 q 881 -2 892 19 q 856 -24 871 -24 q 840 -18 847 -24 q 812 3 821 -6 q 797 28 803 11 q 790 79 790 46 l 790 169 q 758 178 769 169 q 746 192 749 188 q 747 29 744 115 q 749 -22 749 8 q 693 -146 749 -146 q 668 -140 685 -146 q 620 -106 635 -126 q 606 -54 606 -86 q 608 10 606 -25 q 613 79 611 46 q 618 149 615 101 q 379 -133 542 -29 q 367 -137 371 -137 q 357 -126 357 -137 q 360 -115 357 -119 m 719 688 q 1024 724 847 699 q 1029 796 1029 754 q 1024 807 1028 804 q 1010 810 1021 810 q 964 806 997 810 l 874 792 q 722 769 771 778 q 719 688 722 746 m 750 250 l 788 253 q 776 364 785 342 q 775 392 772 378 l 754 388 q 750 335 750 357 l 746 250 l 750 250 m 842 400 q 865 386 853 394 q 885 374 878 378 q 897 349 893 365 q 900 310 901 332 l 896 263 q 943 268 926 265 q 933 385 940 367 q 931 407 929 399 l 842 400 m 1011 413 q 1038 396 1022 408 q 1057 332 1061 379 q 1056 309 1056 321 q 1054 285 1056 297 q 1068 286 1058 286 q 1094 278 1085 286 l 1108 267 q 1110 419 1110 311 l 1011 413 z "},"苏":{"ha":1389,"x_min":126,"x_max":1296,"o":"m 214 -156 q 203 -157 210 -157 q 190 -154 196 -157 q 183 -147 183 -151 q 196 -132 183 -139 q 447 133 365 -12 q 561 451 528 279 l 560 451 q 467 437 519 447 q 388 417 415 426 q 321 443 361 408 q 265 513 281 478 q 261 529 261 524 q 290 546 261 546 q 582 581 331 546 q 583 588 583 583 q 581 628 586 608 q 567 665 575 647 q 556 689 558 682 q 511 727 531 701 q 485 779 492 753 q 278 742 340 760 q 264 740 274 740 q 187 774 228 740 q 129 858 146 808 q 126 874 126 864 q 134 892 126 886 q 153 897 142 897 q 458 908 254 896 q 424 1007 451 931 l 413 1035 q 406 1064 406 1053 q 419 1087 406 1081 q 465 1093 433 1093 q 540 1082 501 1093 q 600 1053 579 1071 q 615 1015 615 1043 q 618 922 615 989 q 696 929 671 928 l 813 942 q 818 1022 818 1003 q 808 1097 818 1071 q 804 1114 804 1106 q 811 1134 804 1126 q 825 1142 818 1142 q 928 1113 876 1140 q 1004 1053 979 1085 q 1017 1017 1017 1036 q 1008 975 1017 1000 l 1004 964 l 1040 968 q 1082 974 1032 968 q 1143 979 1143 979 q 1167 975 1157 979 q 1219 933 1197 963 q 1260 865 1240 904 q 1261 853 1261 861 q 1253 826 1261 838 q 1232 817 1246 815 q 1128 818 1199 818 q 931 814 1031 818 q 865 738 907 779 q 822 707 846 718 q 779 696 797 696 q 761 718 753 696 q 786 807 776 765 l 625 794 l 625 782 l 625 750 q 701 720 664 742 q 758 679 739 699 q 778 653 771 668 q 786 624 786 638 q 785 613 786 615 q 896 636 879 629 q 943 649 929 649 q 969 640 960 649 q 1023 593 997 622 q 1060 540 1049 564 q 1065 510 1065 524 q 1060 482 1065 501 q 1053 457 1058 478 q 1046 393 1049 436 q 1044 382 1046 386 q 1225 322 1132 372 q 1278 270 1261 301 q 1296 204 1296 239 q 1283 144 1296 174 q 1246 93 1269 114 q 1207 78 1226 78 q 1147 126 1174 78 q 1029 274 1117 183 q 947 -44 990 71 q 915 -115 932 -87 q 871 -164 899 -143 q 807 -189 838 -189 q 750 -157 771 -189 q 704 -107 736 -137 q 639 -47 672 -76 l 607 -18 q 596 -4 596 -11 q 601 1 596 0 q 614 1 606 3 q 669 -12 638 -6 q 714 -18 701 -18 q 744 -6 728 -18 q 767 25 760 6 q 858 463 832 160 l 858 471 q 856 480 858 478 q 843 482 853 482 q 743 474 818 482 q 580 70 704 232 q 214 -156 456 -92 m 181 99 q 175 131 175 115 q 187 185 175 157 q 222 235 199 214 q 291 297 251 258 q 356 365 331 335 q 381 379 367 379 q 400 364 396 379 q 413 288 413 329 q 408 247 413 268 q 363 133 399 193 q 293 56 328 72 q 256 47 276 47 q 181 99 207 47 z "},"跨":{"ha":1389,"x_min":11,"x_max":1388,"o":"m 65 -44 q 34 19 51 -28 q 14 72 17 65 q 11 90 11 83 q 19 114 11 104 q 39 124 26 124 q 85 122 72 121 l 81 250 l 76 372 q 74 417 76 376 q 61 493 72 458 q 57 507 57 501 q 61 516 57 513 q 72 519 65 519 q 160 510 121 519 q 217 485 200 500 q 232 449 232 469 q 229 431 232 444 q 224 361 228 421 q 222 228 222 328 l 222 157 q 265 168 231 158 q 264 192 264 175 q 265 232 264 218 q 274 475 274 328 q 272 583 274 550 l 267 582 q 253 551 261 563 q 235 539 244 539 q 193 556 218 539 q 153 596 168 574 q 135 631 139 615 q 132 675 132 647 q 135 739 135 717 q 118 921 135 814 q 100 992 103 985 q 94 1011 94 1003 q 132 1029 94 1029 q 195 1018 163 1029 q 246 993 228 1007 q 260 971 257 988 q 388 978 361 971 q 414 989 400 981 q 443 1008 428 997 q 467 1022 453 1022 q 489 1014 476 1022 q 564 939 546 965 q 579 922 575 928 q 583 904 583 915 q 579 882 583 897 q 629 882 603 881 l 758 897 q 778 979 772 950 q 789 1063 789 1021 q 779 1114 789 1094 q 775 1128 775 1122 q 790 1139 775 1139 q 804 1138 799 1139 q 899 1108 861 1129 q 940 1083 936 1086 q 960 1056 960 1072 q 950 1022 960 1044 q 932 969 939 993 q 927 954 929 963 q 921 938 925 946 l 915 918 l 1075 943 q 1128 949 1111 949 q 1200 928 1168 949 q 1223 894 1215 918 q 1231 847 1231 871 q 1199 808 1231 808 q 1029 813 1103 813 l 949 811 q 1003 778 969 801 q 1238 585 1128 664 q 1346 514 1285 551 q 1374 497 1367 501 q 1388 479 1388 488 q 1368 463 1388 471 l 1315 444 q 1270 428 1306 440 q 1214 415 1235 417 q 1190 413 1197 413 q 1121 443 1151 413 l 1121 438 q 1112 413 1121 421 q 1093 404 1103 404 q 886 393 983 407 q 893 374 893 383 q 889 361 893 368 q 847 289 874 325 q 909 303 867 292 q 978 324 951 315 q 1003 338 988 329 q 1029 346 1019 346 q 1049 340 1039 346 q 1154 251 1108 314 q 1167 217 1167 233 q 1158 190 1167 204 q 1140 167 1144 178 q 1128 136 1135 157 l 1118 110 q 1042 -68 1076 0 q 964 -151 1014 -124 q 875 -190 899 -190 q 861 -187 869 -190 q 847 -173 850 -181 q 841 -151 843 -165 q 836 -124 839 -136 q 831 -100 835 -118 q 812 -61 826 -82 q 768 -17 797 -40 q 754 1 754 -4 q 764 7 754 7 q 809 4 782 7 q 849 0 836 1 l 875 -1 q 908 13 896 -1 q 939 61 928 35 q 958 115 950 88 q 968 150 965 142 q 972 174 972 163 q 950 192 972 192 q 861 179 926 192 q 771 150 796 167 q 731 136 751 136 q 703 147 714 136 q 675 196 696 154 l 661 224 q 654 250 654 235 q 663 271 654 263 q 679 285 665 275 q 706 307 693 296 q 740 368 733 339 q 724 367 735 367 q 682 379 699 367 q 643 418 665 392 q 622 444 622 436 q 658 461 622 457 q 833 492 725 468 q 942 513 907 508 q 1018 526 992 526 q 1061 518 1040 526 l 1011 581 q 979 569 1004 572 l 929 563 q 758 540 786 542 l 751 540 q 721 554 738 540 q 572 450 668 501 q 581 425 581 438 q 572 400 581 413 q 554 385 565 390 q 519 376 543 379 l 488 371 q 426 358 465 364 l 414 356 q 411 221 414 282 l 411 210 q 544 253 500 236 q 550 254 546 254 q 561 247 558 254 q 558 235 564 240 q 407 128 493 183 q 200 0 321 72 l 122 -47 q 93 -57 107 -57 q 65 -44 78 -57 m 261 842 q 268 710 261 776 q 399 729 354 721 l 406 774 q 418 850 413 807 l 418 853 q 401 864 418 863 q 261 842 351 863 m 429 499 q 482 510 460 510 q 511 503 499 510 q 540 485 528 496 q 648 630 603 556 q 725 792 693 704 q 626 775 675 785 q 614 774 622 774 q 556 817 582 774 q 528 671 528 725 q 464 567 526 613 q 436 557 447 557 q 415 569 424 557 l 415 494 l 429 499 m 785 626 q 869 649 811 632 l 907 658 q 947 660 932 661 l 861 768 q 785 626 826 685 z "},"验":{"ha":1389,"x_min":25,"x_max":1404,"o":"m 250 392 q 228 388 233 388 q 199 400 211 388 q 156 460 185 414 q 146 490 146 475 q 151 508 146 501 q 167 522 154 511 q 183 549 181 532 q 201 729 201 632 q 197 771 201 749 q 194 789 194 785 q 198 798 194 796 q 211 800 201 800 q 336 729 281 800 q 343 713 343 719 q 335 686 343 706 q 319 619 326 664 q 310 535 311 575 q 351 544 342 543 l 389 553 q 400 688 392 604 q 413 819 411 782 l 414 832 q 401 844 414 844 q 389 843 394 844 q 297 826 343 833 q 219 819 251 819 q 165 838 193 819 q 124 886 138 857 q 119 901 119 894 q 151 924 119 919 q 273 942 200 928 q 381 974 346 957 q 411 988 397 982 q 433 1000 425 994 q 467 1008 453 1008 q 499 996 485 1008 q 560 941 526 976 q 596 892 594 906 q 576 839 604 867 q 559 791 567 828 q 540 682 551 754 l 536 653 q 524 593 525 600 l 528 593 q 550 583 542 593 q 571 560 565 568 q 683 747 631 647 q 760 925 735 847 q 781 1051 781 988 l 779 1092 q 804 1119 779 1119 q 822 1117 808 1119 q 938 1053 894 1096 q 957 1013 957 1035 q 940 969 957 990 l 926 940 l 935 929 q 1050 794 976 876 q 1165 672 1124 711 q 1378 519 1289 554 q 1404 499 1404 510 q 1383 483 1404 490 q 1219 457 1300 457 q 1135 471 1163 457 q 1079 522 1107 485 q 993 650 1046 565 q 881 818 932 750 l 875 806 q 706 582 808 681 l 829 611 q 950 638 938 638 q 996 619 978 638 q 1025 561 1018 588 q 1026 549 1026 557 q 1021 531 1026 539 q 1007 524 1015 524 q 858 507 958 524 q 699 476 758 490 q 667 488 683 475 q 638 524 650 501 q 623 512 629 517 q 611 503 617 507 l 615 496 q 626 457 626 475 q 615 421 626 439 q 599 392 603 404 q 594 366 596 381 q 592 344 592 351 q 582 246 588 313 q 556 29 574 119 q 490 -117 538 -61 q 410 -165 451 -165 q 390 -161 399 -165 q 378 -151 382 -158 q 369 -128 374 -143 q 351 -87 360 -100 q 322 -53 338 -68 q 275 -14 306 -37 q 253 10 253 4 q 289 17 253 21 q 336 15 304 15 l 360 15 q 382 19 375 15 q 392 33 389 22 q 440 325 433 168 q 294 204 364 257 q 133 92 224 151 q 113 83 121 83 q 85 101 97 83 q 56 151 75 111 q 28 218 36 190 q 25 233 25 229 q 33 256 25 247 q 56 264 42 265 q 78 263 64 263 q 128 269 96 263 q 279 316 189 286 q 440 374 369 346 l 440 411 q 436 428 440 425 q 413 429 432 432 q 326 411 383 424 q 250 392 268 399 m 574 4 q 568 26 568 15 q 601 46 568 49 q 663 43 638 43 q 860 54 724 43 q 956 252 915 142 q 996 424 996 363 q 993 449 996 435 l 992 456 q 1000 469 992 465 q 1019 469 1008 472 q 1060 458 1026 468 q 1121 436 1093 449 q 1165 410 1149 424 q 1181 375 1181 394 q 1174 350 1181 367 q 1131 289 1163 326 q 1104 254 1107 258 l 1088 231 q 971 67 1014 118 l 1064 79 q 1129 86 1115 86 q 1207 56 1181 86 q 1239 11 1225 39 q 1256 -40 1253 -17 q 1254 -65 1260 -54 q 1239 -81 1249 -75 q 1222 -83 1229 -86 l 1179 -79 q 981 -64 1067 -64 q 890 -68 929 -64 q 796 -81 850 -72 q 686 -94 726 -92 q 622 -69 650 -97 q 574 4 593 -42 m 606 335 q 633 356 606 358 q 704 331 668 350 q 764 288 740 313 q 801 197 801 249 q 778 126 801 157 q 714 82 756 94 q 707 81 711 81 q 687 90 696 81 q 675 107 678 99 q 654 169 665 132 q 638 226 643 207 q 607 326 615 304 l 606 335 m 769 453 q 769 456 769 454 q 768 460 768 457 q 793 478 768 479 q 860 457 828 472 q 908 418 892 442 q 943 329 943 374 q 923 270 943 296 q 865 235 903 244 q 858 233 863 233 q 841 241 849 233 q 831 257 833 249 q 796 367 818 292 q 769 453 790 385 z "},"、":{"ha":1042,"x_min":196,"x_max":489,"o":"m 454 -75 q 489 -60 489 -75 q 481 -39 489 -51 q 399 89 454 -3 q 350 167 368 140 q 313 203 332 193 q 269 215 294 213 q 210 217 243 217 q 196 207 196 217 q 203 188 196 199 q 256 82 239 124 q 299 -29 274 40 q 321 -66 308 -56 q 357 -76 333 -76 l 421 -75 l 454 -75 z "},"!":{"ha":476,"x_min":133,"x_max":342,"o":"m 304 11 q 271 0 290 3 q 250 -1 264 -1 q 179 24 206 -1 q 153 96 153 49 q 200 188 153 165 q 244 199 225 199 q 278 192 261 199 q 342 94 342 169 q 304 11 342 39 m 135 921 q 151 957 133 947 q 208 964 168 967 l 300 956 q 330 939 318 954 q 339 907 342 924 q 325 766 328 833 q 322 568 322 699 l 322 407 q 303 343 322 372 q 249 319 285 314 q 174 388 174 332 q 165 642 174 535 q 143 853 157 750 q 135 921 136 893 z "},"，":{"ha":1042,"x_min":244,"x_max":456,"o":"m 456 94 q 444 10 456 51 q 413 -64 433 -32 q 353 -122 385 -106 q 293 -139 322 -139 q 261 -132 278 -139 q 244 -114 244 -125 q 247 -110 244 -110 q 316 -69 290 -104 q 338 1 342 -33 q 285 32 304 8 q 267 96 267 56 q 314 188 267 165 q 358 199 339 199 q 392 192 375 199 q 456 94 456 169 z "}}}
